/* XPM */
static char *_42c8786e9ad4bd9d5bbedce4b2dcc5cxL4eopIKYoA3A4eZ[] = {
/* columns rows colors chars-per-pixel */
"58 58 203 2 ",
"   c None",
".  c #06001E",
"X  c #3A131F",
"o  c #0C0124",
"O  c #050020",
"+  c #130425",
"@  c #190725",
"#  c #1D0925",
"$  c #110628",
"%  c #1D0C29",
"&  c #16092A",
"*  c #220B25",
"=  c #2B0D24",
"-  c #230E29",
";  c #310F22",
":  c #2E1125",
">  c #25112B",
",  c #2A132C",
"<  c #351122",
"1  c #3C1523",
"2  c #331A2F",
"3  c #3A1C2C",
"4  c #341E31",
"5  c #3C1E30",
"6  c #352132",
"7  c #3C2433",
"8  c #4B171F",
"9  c #4C181F",
"0  c #541B1E",
"q  c #5A1E1D",
"w  c #601F1D",
"e  c #5F201B",
"r  c #64221D",
"t  c #6A241E",
"y  c #72261C",
"u  c #72281D",
"i  c #7C2C1D",
"p  c #7E2D16",
"a  c #421521",
"s  c #441924",
"d  c #4A1B23",
"f  c #441A27",
"g  c #531D21",
"h  c #562123",
"j  c #5B2222",
"k  c #562A2B",
"l  c #432534",
"z  c #432A36",
"x  c #4C2B36",
"c  c #492D37",
"v  c #522D38",
"b  c #4B343B",
"n  c #52363C",
"m  c #59373C",
"M  c #4F2225",
"N  c #632522",
"B  c #6B2A23",
"V  c #6A2A25",
"C  c #722C22",
"Z  c #7A2F21",
"A  c #68322B",
"S  c #7C3122",
"D  c #753325",
"F  c #643B3E",
"G  c #6D3C3A",
"H  c #6D4342",
"J  c #6D4B45",
"K  c #674944",
"L  c #7E4D46",
"P  c #754743",
"I  c #745449",
"U  c #755449",
"Y  c #6E554B",
"T  c #7E6352",
"R  c #812E1D",
"E  c #812E15",
"W  c #83311F",
"Q  c #8B341E",
"!  c #8A3415",
"~  c #91361C",
"^  c #95391F",
"/  c #9B3D1F",
"(  c #9F3F16",
")  c #823221",
"_  c #8A3621",
"`  c #8D3A23",
"'  c #843C28",
"]  c #943B21",
"[  c #9A3E21",
"{  c #A03F20",
"}  c #9C4017",
"|  c #A3431F",
" . c #A64514",
".. c #BA591D",
"X. c #9B4223",
"o. c #95482C",
"O. c #9D5238",
"+. c #964D29",
"@. c #A44422",
"#. c #A94621",
"$. c #AD4B23",
"%. c #A54C27",
"&. c #B44E24",
"*. c #AC5125",
"=. c #AA532B",
"-. c #B45125",
";. c #BB5525",
":. c #B65A27",
">. c #BD5A27",
",. c #BE5F28",
"<. c #A65635",
"1. c #A34E32",
"2. c #B96029",
"3. c #C25B27",
"4. c #C25E28",
"5. c #C36426",
"6. c #C56329",
"7. c #C96529",
"8. c #C5692B",
"9. c #CC6B2B",
"0. c #CC6F27",
"q. c #D16F2B",
"w. c #CF712D",
"e. c #D3742C",
"r. c #D5792E",
"t. c #DA7C2D",
"y. c #D27226",
"u. c #D57B31",
"i. c #D87E31",
"p. c #8C5C4C",
"a. c #86554A",
"s. c #925D4B",
"d. c #804E42",
"f. c #99614F",
"g. c #8C6451",
"h. c #936C54",
"j. c #9A6652",
"k. c #937359",
"l. c #A9684A",
"z. c #B26744",
"x. c #BC754B",
"c. c #A36A54",
"v. c #AD7458",
"b. c #A37A5A",
"n. c #B57A5B",
"m. c #BB7D5C",
"M. c #B27758",
"N. c #C37C54",
"B. c #DE822E",
"V. c #DC8433",
"C. c #DE8935",
"Z. c #E0842F",
"A. c #E48B32",
"S. c #E18C36",
"D. c #EA9335",
"F. c #E5943A",
"G. c #EC9C3B",
"H. c #E89638",
"J. c #F1A43E",
"K. c #EEA03B",
"L. c #9F805F",
"P. c #AD825E",
"I. c #BF815E",
"U. c #B78862",
"Y. c #B9986B",
"T. c #C98B5C",
"R. c #E99F43",
"E. c #EBA341",
"W. c #EEA945",
"Q. c #EFAE4B",
"!. c #F2A542",
"~. c #F4AC44",
"^. c #F2AE48",
"/. c #F3B54D",
"(. c #F4BD52",
"). c #EFB44D",
"_. c #CA8E64",
"`. c #C78F64",
"'. c #CC9A69",
"]. c #C89568",
"[. c #D39365",
"{. c #DC9E6A",
"}. c #D79968",
"|. c #DBA56F",
" X c #CAA873",
".X c #DBA972",
"XX c #D5B478",
"oX c #E4A36E",
"OX c #E5A970",
"+X c #ECAC72",
"@X c #E9A770",
"#X c #ECB174",
"$X c #EBBB7C",
"%X c #E4B879",
"&X c #F2B476",
"*X c #F2BC79",
"=X c #F6C47E",
"-X c #EAC27F",
";X c #ECC983",
":X c #F3CA83",
">X c #FACD84",
",X c #FED285",
"<X c #F6D186",
/* pixels */
"                                                                                                                    ",
"                                                                                                                    ",
"                                                                                                                    ",
"                                                                                                                    ",
"                              + + + + + + + + + + + + +                                                             ",
"                            * @ # * # # # * # # # # # # #                                                           ",
"                            = = ; X X X X X ; ; ; ; ; ; = =                                                         ",
"                        + * ; a 8 0 q e r q 9 8 8 8 8 8 1 = #                                                       ",
"                      + @ = a g t p p ! ! p u t r r t q 9 < * +                                                     ",
"                      * = 1 g t p ! }  . .} ! W R R i y q a ; * #                                                   ",
"                    : 1 d g V R ^ | ........$.X./ ^ Q i r 0 8 ; = =                                                 ",
"                + * 1 g B Z _ [ | >.5.y.y.y.8.:.*.@.^ Q i t q 8 < = #                                               ",
"              + # = d B _ [ @.$.;.5.y.t.t.t.e.9.,.*.@.] _ R y w d = # +                                             ",
"              # = 1 g Z [ #.&.;.4.9.e.t.t.i.e.9.6.:.$.%.[ ^ _ y d : # +                                             ",
"          # = ; 1 g B _ @.&.;.4.7.7.q.q.q.9.7.6.5.,.:.-.-.#.[ R h < @ o                                             ",
"        + # = 8 q t R [ &.;.4.7.9.9.7.4.4.3.3.>.3.,.8.6.,.;.$.` N 1 @ +                                             ",
"        + * ; d r R ^ @.&.3.7.0.9.9.6.>.;.;.3.3.4.7.9.9.9.4.;.[ C f : #                                             ",
"        + # ; g y Q [ &.;.6.0.e.e.e.6.3.>.4.6.9.9.9.8.9.7.7.3.1.' j s < :                                           ",
"        + * 1 g Z ^ @.-.3.7.e.t.t.r.7.4.5.8.u.V.i.r.9.9.7.7.4.&.X.S N h 1 * @                                       ",
"        + # 1 g R [ $.;.4.9.r.B.Z.t.q.9.9.u.C.H.R.u.w.9.7.7.4.>.*.X.) t d = @ o                                     ",
"        + * 1 N _ @.&.>.6.e.B.A.A.Z.t.y.t.Z.K.W.R.i.u.q.9.9.9.7.>.-.X.Z g = @ o                                     ",
"        + # 1 V ] $.>.4.8.r.B.D.D.D.Z.t.V.F.W./.^.R.R.i.i.r.r.q.9.5.*.' k : $ o                                     ",
"        + * f A [ &.3.6.9.r.S.H.K.D.D.Z.A.R.Q.(./.Q.R.R.A.A.Z.t.r.0.2.+.k : + o                                     ",
"        + * f C X.;.4.7.w.V.S.H.K.G.D.A.D.E.).(.(./.!.!.R.D.A.Z.B.r.2.+.A 1 # +                                     ",
"        + * s V X.-.>.7.9.u.C.F.H.D.Z.Z.C.F.W./.(./.~.~.K.D.t.t.t.e.7.%.D M < =                                     ",
"        + * 1 V ] $.;.6.9.w.i.C.S.V.r.e.u.C.F.W.^.^.~.!.G.A.t.t.q.7.4.%.o.A j d < *                                 ",
"        + # 1 N Q @.&.3.8.9.r.u.u.w.7.6.7.e.Z.D.!.J.!.J.R.i.e.q.4.4.>.$.X._ Z g 1 * +                               ",
"        + # 1 j W / &.;.5.6.9.9.w.6.4.>.4.9.t.A.D.G.J.K.A.i.q.4.3.>.;.&.| / W N 1 * +                               ",
"        + * X 0 R ^ { &.3.4.7.4.6.6.3.>.3.7.t.t.A.D.G.G.A.i.q.4.6.3.>.&.#.^ R g 1 # + o                             ",
"        + # < 0 y Q { &.3.3.4.3.4.4.3.3.6.9.q.t.Z.A.D.D.A.i.q.q.7.7.3.&.{ ~ y 9 ; @ o                               ",
"        + # : 8 t R ] #.&.;.;.3.;.3.3.4.7.7.q.e.t.Z.A.A.Z.i.e.9.9.7.4.-.{ Q C g < * + +                             ",
"        + @ = 8 g y W [ { &.&.&.&.-.>.3.5.6.7.q.y.t.i.Z.i.r.w.9.6.,.:.*.%.o.' A k l 2 ,                             ",
"          # = < a 0 t S ] { #.#.&.&.&.-.;.>.4.6.9.q.e.t.r.e.q.6.:.*.%.=.<.z.z.f.d.G m l ,                           ",
"            % * = < 0 B R ^ / { { @.@.#.$.&.;.3.4.7.9.q.q.9.7.,.$.X.} O.x.T.[.T.M.f.d.m 2 @                         ",
"              & # = 1 q y R Q Q ^ ] ] ] [ @.$.&.;.3.4.6.7.7.4.>.| Q S O.x.{.@X@X}.T.s.H l , %                       ",
"              $ + * ; a g w r B C C C C S _ @.$.&.;.;.>.4.4.3.;.| ~ Q O.N.{.&X&XOX[.m.p.F z 5 :                     ",
"                  # = ; < a a d d d d d j C ] @.&.&.&.&.;.3.4.;.$.X.] <.x.[.oX@X#XOX[.n.s.P m 5 % . . . .           ",
"                    % * = * = = = = = = 1 j S [ @.{ { @.#.&.;.-.| / ] 1.z.N.[.oX+X#XOX[.m.c.L v , & o + @ +         ",
"                      @ @ @ @ @ + + + @ : d V ) _ Q _ _ ] X.@.X.X.Q ` o.O.l.n._.|.#X&XoX[.N.f.J z 6 4 6 7 4 6       ",
"                        $ o + + $ $ $ + - 1 h j N N N B B C D C u V V A G L p.v._.oX+X@X@X[.`.k.T Y Y I J K n 7     ",
"                                      & % = 1 1 1 s 1 s f d f d a f f f f x m a.v.[.oX@X+X@X.X XY.Y.Y.U.P.k.J 7 # . ",
"                                          * * * * * * * * * * * * * * * % > 5 F p.n._.oX#X*X=X:X;X;X;X%X|.U.U z # o ",
"                                            + + + + + + + + + + + + + $ $ $ , x P f.M.}.#X:X>X,X<X;X;X.X].b.Y 7 % o ",
"                                                + $ + $ $ $ $ $ $ $ o $ o $ % 4 v H g.U.%X>X,X>X$X.X].b.h.I m 7 # . ",
"                                                                          & % - , 7 K b.XX<X,X$X{.U.j.J n z 7       ",
"                                                                            & & $ > b k. X;X:X#X[.v.L v , @         ",
"                                                                              o o & z T ].$X=X&X{.n.d.z % o         ",
"                                                                              o o & z I P.|.&X&X+X`.g.c * . O       ",
"                                                                              o o # 7 H c._.oX+X#X'.h.n > + o       ",
"                                                                                + % 5 F a.c.m.[.'.U.g.n > o o       ",
"                                                                                $ % 4 v F P a.g.h.g.Y z > +         ",
"                                                                                    , 4 l l v n m n c 6             ",
"                                                                                      * * * > - > > >               ",
"                                                                                        + + + + + o +               ",
"                                                                                                                    ",
"                                                                                                                    ",
"                                                                                                                    ",
"                                                                                                                    "
};
