/* XPM */
static char *_4ec8608aa434c9b8cd621fc8f37a32ahuNdAU5AzNK9gvLt[] = {
/* columns rows colors chars-per-pixel */
"58 58 168 2 ",
"   c None",
".  c black",
"X  c #010000",
"o  c #000100",
"O  c #010100",
"+  c #020100",
"@  c #030100",
"#  c #040200",
"$  c #050201",
"%  c #060201",
"&  c #060301",
"*  c #070301",
"=  c #050500",
"-  c #080301",
";  c #080401",
":  c #090401",
">  c #0A0401",
",  c #0B0501",
"<  c #0D0601",
"1  c #0E0601",
"2  c #0F0702",
"3  c #080800",
"4  c #090900",
"5  c #0A0900",
"6  c #0F0E00",
"7  c #100702",
"8  c #110702",
"9  c #110802",
"0  c #120802",
"q  c #140802",
"w  c #140902",
"e  c #150902",
"r  c #160A02",
"t  c #170A03",
"y  c #180A03",
"u  c #190B03",
"i  c #1B0C03",
"p  c #1C0C03",
"a  c #1E0D03",
"s  c #1F0D03",
"d  c #141301",
"f  c #200E04",
"g  c #210E04",
"h  c #220F04",
"j  c #251004",
"k  c #271104",
"l  c #281104",
"z  c #2B1305",
"x  c #2C1305",
"c  c #2F1505",
"v  c #311505",
"b  c #341706",
"n  c #361706",
"m  c #361806",
"M  c #371806",
"N  c #381806",
"B  c #391906",
"V  c #3A1906",
"C  c #3D1B07",
"Z  c #3E1B07",
"A  c #3E3A02",
"S  c #401C07",
"D  c #411C07",
"F  c #421D07",
"G  c #431D07",
"H  c #441E08",
"J  c #461F08",
"K  c #471F08",
"L  c #481F08",
"P  c #492008",
"I  c #4A2008",
"U  c #4B2008",
"Y  c #4D2209",
"T  c #4E2209",
"R  c #4F2209",
"E  c #502309",
"W  c #542409",
"Q  c #56260A",
"!  c #58260A",
"~  c #59260A",
"^  c #59270A",
"/  c #5A270A",
"(  c #5C280A",
")  c #5E290A",
"_  c #5F290A",
"`  c #622B0B",
"'  c #642C0B",
"]  c #652C0B",
"[  c #662C0B",
"{  c #672D0B",
"}  c #692D0C",
"|  c #692E0C",
" . c #6A2E0C",
".. c #6C2F0C",
"X. c #6E300C",
"o. c #6F300C",
"O. c #70300C",
"+. c #70310C",
"@. c #71310C",
"#. c #71310D",
"$. c #72310D",
"%. c #72320D",
"&. c #73320D",
"*. c #74320D",
"=. c #74330D",
"-. c #78340D",
";. c #79340D",
":. c #79350D",
">. c #7A350D",
",. c #7A350E",
"<. c #7B350E",
"1. c #7B360E",
"2. c #7C360E",
"3. c #7D360E",
"4. c #7F370E",
"5. c #615B03",
"6. c #676103",
"7. c #746C04",
"8. c #756D04",
"9. c #766E04",
"0. c #80380E",
"q. c #81380E",
"w. c #82390E",
"e. c #83390E",
"r. c #83390F",
"t. c #84390F",
"y. c #853A0F",
"u. c #863A0F",
"i. c #873A0F",
"p. c #873B0F",
"a. c #883B0F",
"s. c #893B0F",
"d. c #893C0F",
"f. c #8A3C0F",
"g. c #8B3C0F",
"h. c #8B3D0F",
"j. c #8C3D0F",
"k. c #8D3D10",
"l. c #8E3E10",
"z. c #8F3E10",
"x. c #903E10",
"c. c #903F10",
"v. c #913F10",
"b. c #923F10",
"n. c #924010",
"m. c #934010",
"M. c #944010",
"N. c #944110",
"B. c #954110",
"V. c #964111",
"C. c #974211",
"Z. c #984211",
"A. c #877E04",
"S. c #888004",
"D. c #898004",
"F. c #A29805",
"G. c #C1B506",
"H. c #C3B706",
"J. c #C5B806",
"K. c #D3C607",
"L. c #D6C807",
"P. c #FCEC08",
"I. c #FFEE08",
"U. c #FFEF08",
"Y. c #FFF008",
"T. c #FFF108",
"R. c #FFF208",
"E. c #FFF308",
/* pixels */
"                                                                                                                    ",
"                                                                                                                    ",
"                                                                                                                    ",
"                                                                                                                    ",
"                                                                                                                    ",
"                                                                                                                    ",
"                                                                                                                    ",
"                                          . . . . . . . . . . . . . . . . . . .                                     ",
"                                          . . $ t y y y y y y y y y y y q . . .                                     ",
"                                      . . . . k r.y.y.y.y.y.y.a.a.y.y.a.%.- . . . .                                 ",
"                                    . . . - $ v x.x.l.f.j.x.x.x.a.j.x.N.>.7 $ $ . .                                 ",
"                                . . . . $ ` %.4.x.n.U p x y.b.{ g h ..N.j.=.=.V . . . . .                           ",
"                                . . . . : >.N.n.n.x.n . 7 4.B.^ . . { x.x.N.N.E . . . . .                           ",
"                            . . . . v ^ ( f.x.n.x.x.M . 7 r.B.^ . . ' N.r.F N L ^ E t . . . .                       ",
"                          . . . . . T N.N.x.n.x.n.x.N . 7 0.B.^ . $ ' N.>.$ . F N.l.g . . . .                       ",
"                          . . < N N  .n.x.n.x.n.x.n.N . 7 r.B.^ . . ' N.>.< . G N.l.T N c . .                       ",
"                      . . . . h l.x.n.N.N.x.x.n.x.n.M . 7 0.B.^ . . { N.-.< . G N.n.b.N.%.$ .                       ",
"                      . . y p V l.x.0.%.=.j.n.x.n.x.M . 7 r.B.^ . $ { N.-.: . G x.x.x.N.O.- . .                     ",
"                      . -  .j.j.x.n.J $ 7 >.N.n.x.n.N . 7 0.B.^ . . ' N.-.: . G N.x.x.N...$ . . . .                 ",
"                      . $ %.N.x.x.n.F . : >.x.x.n.x.N . 7 0.B.^ . $ ' N.-.< . G N.x.x.N.%.7 < $ . .                 ",
"                      . $ O.b.x.n.N.G . < -.N.x.n.x.M . q 0.B.( . . { N.>.: . G N.x.n.x.j.4.>.N . . . . .           ",
"                      . $ O.N.x.x.N.G . : -.N.x.x.x.M . 7 0.b.^ . $ { N.=.< . G N.x.x.x.x.x.N.F . . . . .           ",
"                . . . . $ O.N.x.x.N.G . < -.x.n.n.x.N . 7 0.Z.^ . . ' N.>.< . G N.x.N.n.>.n c U ' ^ 7 . .           ",
"                . . . . . %.N.n.x.N.G . : >.N.x.x.n.N . q 0.b.( . $ ' N.-.: . G b.x.x.N.%.. . T Z.f.y . .           ",
"                . . g G U 4.x.x.x.b.G . : -.N.n.n.x.M . 9 4.B.^ . . { N.-.< . G N.n.x.b.%.- . T b.y.i . .           ",
"                . . G B.n.n.N.x.n.N.G . < -.N.x.x.n.M . 7 r.B.^ . $ { N.-.: . G b.x.n.N...$ . T b.a.y . .           ",
"                . . G x.l.%. .%.x.N.G . : >.N.x.n.x.N . 7 r.B.^ . . ' N.-.: . G N.x.x.N.O.$ . T N.a.y . .           ",
"                . . G N.j.k . k j.x.G . : -.N.x.x.n.N . 7 r.B.^ . $ ' N.-.< . G N.x.n.x.O.$ . E b.a.y . .           ",
"                . . F n.f.h . h j.N.F . : >.n.x.n.x.N . 7 0.B.^ . . { N.>.: . G N.n.x.N.=.t < W N.y.i . .           ",
"                . . G N.f.h . h j.n.G . : >.N.x.x.x.N . 7 0.B.^ . $ { N.=.< . G b.x.n.x.j.r.0.a.N.y.y . . . .       ",
"                . . F n.j.j . h j.x.G . : >.N.x.n.x.N . 7 0.B.( . . ' N.>.< . F l.l.l.l.j.x.l.j.l.y.i . $ . .       ",
"          . . . . . F n.f.j . j j.N.G . : >.N.n.x.n.N . 7 0.B.^ . $ ' N.-.: . 7 l k k k l h z k k z _ ..U . .       ",
"          . . . . . G N.j.h . h j.n.G . < =.N.x.x.n.N . 7 0.B.^ . $ { B.>.: . . . . . . . . . . . : >.N. .. .       ",
"          . . . . . G N.f.h . h f.N.G . < >.b.N.n.x.N . q 0.B.( . . ' B.>.: . . . = 6.D.A.A.D.A . < >.N.{ . .       ",
"          . . . . . G x.j.h . h j.n.G . : -.b.x.x.n.N . 7 0.B.^ . $ ' B.>.: . . . 5 J.E.U.E.E.9.. : -.N.{ $ .       ",
"          . . . . . G N.f.h . h f.N.G . < =.N.x.n.x.M . 7 0.B.^ . . ' B.>.: . . . 5 G.U.P.P.U.7.. < -.N.' . .       ",
"          . . . . . F N.j.j . h j.n.G . < -.N.n.x.n.M . 7 r.B.( . . ' N.-.< . . . 5 H.E.U.U.U.9.. : >.N.{ . .       ",
"          . . . . . G n.f.j . h f.N.G . : >.b.x.n.x.M . 7 4.B.^ . $ { N.=.< . . . 5 F.L.K.K.L.5.. < >.N.' $ .       ",
"          . . . . . G N.f.h . h j.n.G . < =.N.x.x.n.M . 7 4.B.^ . . { N.-.> . . . . 9 d d d d : . : -.B.' . .       ",
"          . . . . . F N.f.h . h f.N.G . < -.N.x.n.x.M . 7 r.B.^ . . { N.-.< . $ : = $ - $ $ $ = - 7 >.B.' $ .       ",
"          . . . . . G N.j.h . h j.n.G . < =.N.x.n.x.M . 7 0.b.^ . . ' Z.>.< . n %.%.=.%.%.=.%.%.%.=.j.b.{ . .       ",
"          . . . . . G N.f.h . h f.N.G . < >.b.N.x.x.M . 7 0.Z.( . $ ' N.=.: . G N.n.x.N.N.b.N.x.b.N.x.N.' $ .       ",
"          . . . . . G x.j.h . h j.n.G . : -.b.x.n.x.N . 7 0.Z.^ . $ ' N.>.: . G N.x.n.n.4.V N  .N.x.x.b.' . .       ",
"          . . . . . G N.f.h . h f.N.G . < =.N.x.x.n.N . q 0.b.^ . . ' N.-.< . G N.x.x.N.o.$ . T N.x.n.N.' $ .       ",
"          . . . . . F N.j.j . h j.n.G . : -.N.x.n.x.N . 7 0.Z.( . $ { B.-.: . G N.N.x.N.o.$ . E N.x.x.b.{ $ .       ",
"          . . . . . G n.f.j . h f.N.G . < >.n.n.x.n.N . 7 0.B.^ . . ' B.-.< . G x.x.x.N.o.$ . T N.x.n.N.' . .       ",
"          . . . . . G N.f.h . h j.n.F . : >.n.x.n.x.M . 7 0.N.^ . $ ' B.-.: . G N.x.x.N.%.$ . T N.x.x.b.' . .       ",
"          . . . . . F n.f.h . h f.N.F . : -.n.n.x.n.M . 7 r.N.^ . . ' B.-.< . G N.x.x.b...$ . T N.x.n.N.{ . .       ",
"          . . . : - U v.j.x $ x j.m.U : t >.n.x.x.n.V : i r.N._ : < } B.>.9 - U n.x.n.N.%.7 - W N.x.x.N.{ $ .       ",
"          . . t %.>.y.v.v.0.>.4.v.v.r.>.>.f.x.n.n.x.y.>.4.j.n.y.>.4.f.v.j.4.>.y.n.x.x.n.j.>.>.y.n.x.x.N.' . .       ",
"          . . y a.N.x.n.v.v.m.m.v.v.v.m.n.x.n.x.x.n.x.N.x.n.x.n.v.m.v.v.x.n.x.x.x.n.x.n.x.n.N.N.x.n.x.b.{ $ .       ",
"          . . i a.x.n.x.v.v.v.v.v.v.v.v.n.n.x.n.n.x.n.x.n.x.n.x.v.v.v.v.n.n.x.n.n.x.n.x.x.n.x.x.n.x.n.N.' . .       ",
"          . . y a.N.b.n.n.n.N.n.n.n.n.n.n.n.n.N.n.n.n.n.n.n.n.n.n.n.n.n.N.n.n.N.n.n.n.n.n.n.n.n.N.x.N.N.{ . .       ",
"          . . < L T T T T T T T T T T T T T T T T T T T T T T T T T T T T T T T T T T T T T T T T T T E n . .       ",
"          . . . . . . . . . . . . . . . . . . . . . . . . . . . . . . . . . . . . . . . . . . . . . . . . . .       ",
"          . . . . . . . . . . . . . . . . . . . . . . . . . . . . . . . . . . . . . . . . . . . . . . . . . .       ",
"                                                                                                                    ",
"                                                                                                                    "
};
