/* XPM */
static char *_6dd64660f594b3480dac8591850e1e5zslqSFd0XX6wocdB[] = {
/* columns rows colors chars-per-pixel */
"58 58 240 2 ",
"   c None",
".  c gray4",
"X  c #0B0B0B",
"o  c gray5",
"O  c #101010",
"+  c #111111",
"@  c gray7",
"#  c #131313",
"$  c gray8",
"%  c #151515",
"&  c #161616",
"*  c gray9",
"=  c #181818",
"-  c #191919",
";  c gray10",
":  c #1B1B1B",
">  c #1D1D1D",
",  c #1E1E1E",
"<  c gray12",
"1  c #221408",
"2  c #24170D",
"3  c #341A07",
"4  c #361F0F",
"5  c #2F231A",
"6  c #2A231E",
"7  c #392111",
"8  c #3B2311",
"9  c #3A2617",
"0  c #34281F",
"q  c #3A281B",
"w  c #202020",
"e  c gray13",
"r  c #232221",
"t  c #272422",
"y  c #232324",
"u  c #252525",
"i  c gray15",
"p  c #272626",
"a  c #272727",
"s  c #282524",
"d  c #2A2826",
"f  c #282828",
"g  c gray16",
"h  c #2A2A2A",
"j  c #2A2B2B",
"k  c #2C2928",
"l  c #2D2B29",
"z  c #2E2A28",
"x  c #2F2D2B",
"c  c #2A2B2C",
"v  c #2C2C2C",
"b  c #2D2D2C",
"n  c #2D2D2D",
"m  c #2D2E2E",
"M  c #2F2F2F",
"N  c #332C26",
"B  c #352C25",
"V  c #3D2E22",
"C  c #3C2F25",
"Z  c #312E2D",
"A  c #33312F",
"S  c #2F3031",
"D  c gray19",
"F  c #313131",
"G  c #323232",
"H  c #323333",
"J  c gray20",
"K  c #353231",
"L  c #373533",
"P  c #333334",
"I  c #333435",
"U  c #373737",
"Y  c #393634",
"T  c #3B3837",
"R  c #363738",
"E  c #393939",
"W  c #38393A",
"Q  c #39393A",
"!  c #393A3B",
"~  c gray23",
"^  c #3E3C3A",
"/  c #3B3C3D",
"(  c #3C3C3C",
")  c #3C3D3D",
"_  c #3E3E3E",
"`  c #3E3E3F",
"'  c #3F3F3F",
"]  c #46230A",
"[  c #46240B",
"{  c #4D260A",
"}  c #48270E",
"|  c #49270E",
" . c #48280F",
".. c #542B0D",
"X. c #572C0D",
"o. c #5C2F0E",
"O. c #402612",
"+. c #402613",
"@. c #412613",
"#. c #422714",
"$. c #422814",
"%. c #432915",
"&. c #432916",
"*. c #442A16",
"=. c #452A16",
"-. c #462B17",
";. c #4A2B13",
":. c #4B2C13",
">. c #4B2C14",
",. c #4B2E15",
"<. c #4C2E15",
"1. c #462B18",
"2. c #472D19",
"3. c #482D1A",
"4. c #482E1A",
"5. c #532D12",
"6. c #4F341E",
"7. c #523116",
"8. c #5A3112",
"9. c #5D3111",
"0. c #5F3516",
"q. c #50331B",
"w. c #5A371A",
"e. c #5A371B",
"r. c #55381F",
"t. c #63320F",
"y. c #67330E",
"u. c #68330D",
"i. c #68330E",
"p. c #68340E",
"a. c #69340E",
"s. c #693713",
"d. c #6F3811",
"f. c #603919",
"g. c #773C12",
"h. c #7F3E10",
"j. c #433328",
"k. c #47372B",
"l. c #413B35",
"z. c #413F3D",
"x. c #7F4012",
"c. c #71441F",
"v. c #7E4419",
"b. c #41403F",
"n. c #644123",
"m. c #6F4623",
"M. c #3F4040",
"N. c gray25",
"B. c #424140",
"V. c #404142",
"C. c #414242",
"Z. c gray26",
"A. c #424343",
"S. c #434343",
"D. c #454240",
"F. c #474441",
"G. c #464442",
"H. c #474443",
"J. c #474543",
"K. c #424344",
"L. c gray27",
"P. c #454647",
"I. c #464646",
"U. c #484543",
"Y. c #484544",
"T. c #484644",
"R. c #484747",
"E. c #474748",
"W. c #4B4948",
"Q. c #4A4B4B",
"!. c #4B4B4C",
"~. c #4C4C4C",
"^. c #4D4E4F",
"/. c gray31",
"(. c #505050",
"). c gray32",
"_. c #535252",
"`. c #525354",
"'. c gray33",
"]. c #555656",
"[. c #555657",
"{. c gray34",
"}. c #585757",
"|. c #565758",
" X c #575758",
".X c #565858",
"XX c #575858",
"oX c #575859",
"OX c #59595A",
"+X c #5D5D5D",
"@X c #844213",
"#X c #874413",
"$X c #894514",
"%X c #8C4614",
"&X c #8D4714",
"*X c #8C4715",
"=X c #8D4715",
"-X c #8E4715",
";X c #8C4716",
":X c #8D4816",
">X c #8F4916",
",X c #884919",
"<X c #894A1A",
"1X c #8F4C1A",
"2X c #8F4D1B",
"3X c #8F4D1C",
"4X c #914E1B",
"5X c #924E1B",
"6X c #904D1C",
"7X c #904E1C",
"8X c #904F1D",
"9X c #914F1D",
"0X c #93501E",
"qX c #844E23",
"wX c #865024",
"eX c #875024",
"rX c #895124",
"tX c #895224",
"yX c #8B5225",
"uX c #8E5425",
"iX c #895428",
"pX c #905727",
"aX c #925626",
"sX c #945625",
"dX c #945725",
"fX c #945726",
"gX c #945827",
"hX c #955827",
"jX c #955927",
"kX c #975826",
"lX c #965927",
"zX c #975927",
"xX c #965928",
"cX c #965B29",
"vX c #975B29",
"bX c #955B2A",
"nX c #965B2A",
"mX c #975B2A",
"MX c #975C2A",
"NX c #995C2A",
/* pixels */
"                                                                                                                    ",
"                                                                                                                    ",
"                                                                                                                    ",
"                                                                                                                    ",
"                                                                                                                    ",
"                                                                                                                    ",
"                                                                                                                    ",
"                                                                                                                    ",
"                                                                                                                    ",
"                                                                                                                    ",
"                                                        o & X                                                       ",
"                                                  X f I.E N.( N.-                                                   ",
"                                                S.(.N.~.E f W.E.I./.G                                               ",
"                                              a +X}.B q.9.f.0.7 G.XXN.A                                             ",
"                                            J '.l.r.g.mX>XzX0X,Xm.7 W.oX#                                           ",
"                                            ).).e.zX*XmX*XfX3X3XmXh.j.W.-                                           ",
"                                          - E C v.mX%XmX%XaX0X2XkX*Xn.D.K.                                          ",
"                                          ( N.{ 2XzX%XmX%XaX3X3XgX*XiXk.OX<                                         ",
"                                          E z.p.4XgX%XmX*XaX8X3XgX*XmX*.^.<                                         ",
"                                          y t u.4XzX%XmX*XgX8X3XgX*XmX@.f #                                         ",
"                                          ( D.u.4XgX%XmX*XsX4X2XfX&XmX2.`.<                                         ",
"                                          U ^ u.4XzX%XmX*XfX6X6XuX5.q.5 !.:                                         ",
"                                          y s p.4XzX%XmX&XaX0X3XqXB b u b #                                         ",
"                                          ( G.p.4XgX%XMX%XgX8X3XgXd.c.9 '.<                                         ",
"                                          P T u.0XzX%XmX%XdX2X2XaX*XNX*.E.-                                         ",
"                                          y d u.,XwX@XMX*XaX0X3XmX*XmX@.G #                                         ",
"                                          ( I.p.o.1 X.MX>XaX8X2XaX%XmX3.'.<                                         ",
"                                          G L y.8.e...MX%XaX8X3XmX%XmX&.K.=                                         ",
"                                          a l u.s.7.t.mX%XfX6X3XgX%XbX#.P #                                         ",
"                                          N.T.u.2XqX#XmX*XaX0X3XmX%XmX2.|.y                                         ",
"                                          b A y.4XzX%XmX>XaX8X3XgX%XbX%./ &                                         ",
"                                          f Z y.2XzX%XmX%XaX8X3XgX>XbX%.U $                                         ",
"                                          N.T.u.6XzX%XMX>XdX2X3XzX%XMX2.oXw                                         ",
"                                          f k s.4XzX%XmX&XsX8X2XgX#XgX9 L &                                         ",
"                                          b K u.4XgX%XmX*XaX0X6XtX%.V 6 ( -                                         ",
"                                          M.T.u.4XzX%XmX*XaX8X3XtXq N z '.y                                         ",
"                                          u k u.4XzX%XmX%XaX8X3XfXh.qX8 I #                                         ",
"                                          G Y u.2XgX%XMX*XfX8X3XfX>XmX*.K.-                                         ",
"                                          M.T.u.0XzX%XMX>XaX0X2XmX%XmX2.'.<                                         ",
"                                          < r 3 } :.] ,.] ;.} } ;.] ,.2 c #                                         ",
"                                                                                                                    ",
"                                                                                                                    ",
"                                                                                                                    ",
"                                                                                                                    ",
"                                                                                                                    ",
"                                                                                                                    ",
"                                                                                                                    ",
"                                                                                                                    ",
"                                                                                                                    ",
"                                                                                                                    ",
"                                                                                                                    ",
"                                                                                                                    ",
"                                                                                                                    ",
"                                                                                                                    ",
"                                                                                                                    ",
"                                                                                                                    ",
"                                                                                                                    ",
"                                                                                                                    "
};
