/* XPM */
static char *_8a87073b1fd4ef1cf5a71f6af6f0abeyyoIpGOvoIHr3W5Y[] = {
/* columns rows colors chars-per-pixel */
"58 58 7 1 ",
"  c #171414",
". c #191616",
"X c #1B1717",
"o c #1B1818",
"O c #1C1818",
"+ c #201B1B",
"@ c #211C1C",
/* pixels */
"....@+@@@@@@@@@@@@@@@+....@+@@@@@@@@@@+@X...+@@@@@@@@@@@@@",
"....@+@@@@@@@@@@@@@@@+...X++@@@@@@@@@@+@X...+@@@@@@@@@@@@@",
"...o@+@@@@@@@@@@@@@@++. ..++@@@@@@@@@@+@X...+@@@@@@@@@@@@@",
".. .@+@@@@@@@@@@@@@@@O....++@@@@@@@@@@+@X...+@@@@@@@@@@@@@",
"...o@+@@@@@@@@@@@@@@@+...X@+@@@@@@@@@@+@X...++@@@@@@@@@@@@",
".. .@+@@@@@@@@@@@@@@@+...X@+@@@@@@@@@@+@X ..++@@@@@@@@@@@@",
"....@+@@@@@@@@@@@@@@@+...X@+@@@@@@@@@@+@X ..++@@@@@@@@@@@@",
"....@+@@@@@@@@@@@@@@@+...X@+@@@@@@@@@@++X...++@@@@@@@@@@@@",
"....+++++++++++++++++X....++++++++++++++X ..++++++++++++++",
".. .+++@@@@@@@@@@@++++.  X++++++++++@@++X...++++@@@@++@@@@",
"....++@O++++++@O++++++.  .++++++++++++++X ..++++++++++++++",
".. ............................X......... ................",
"............................... .......X..................",
" . . ....... ................ ...........  ......... .....",
"OOOOOoO... ..OOOOOXXOOOOXXOOX....OOXXXOOOOXXXXXX.. XXXOOXO",
"@@@@@+@O . +@+@@@@++@@@@+++++X ..+@+++@@@@++@+++.. X++@@+@",
"+++++++X ..++++++++++++++++++X...++++++++++++++X...O++++++",
"@@@@++@O...+++@@@@@@@@@@@@@++O...+++@+@@@@@@@+++...O++@@@@",
"@@@@@+@O ..+@+@@@@@@@@@@@@@++X...+@+@@@@@@@@@+++...O@+@@@@",
"@@@@@+@O...+@+@@@@@@@@@@@@@+@....+@+@@@@@@@@+++X...+@+@@@@",
"@@@@++@O . +@+@@@@@@@@@@@@@+@O...+++@@@@@@@@@+++...X@+@@@@",
"@@@@++@O...+@+@@@@@@@@@@@@@+@O...+@+@@@@@@@@@+++ ..X@+@@@@",
"@@@@+++X.. +++@@@@@@@@@@@@@@+X...+++@@@@@@@@@+++...O++@@@@",
"+++++++X . +++++++++++++++@O@. ..++++++++++++++O...O++++++",
"@@++@+@O . +++++@@++@@++@@+@@O...+++++++@@++++++.. X++@@@@",
"OOXXOXXX.. XXXXXOOXXOXXXOOX.O....XXXOXXXOOOXXXX.....OXOOXX",
"............... ...........  .............. ....... ......",
"............................. . ................. ........",
"................................X.........................",
"....+X++++++++++++++++....@O++++++++++++....++++++++++++++",
"....@+++@@@@@@@@@@++@+. ..@+@@++@@@@++++X ..+@@@@@@@@@++@@",
"...X@+@@@@@@@@@@@@@@@X...X@+@@@@@@@@++++X...+@@@@@@@@@++@+",
"....@+@@@@@@@@@@@@@@@+. .O++@@@@@@@@@@+@X...++++@@@@@@@@@@",
"....@+@@@@@@@@@@@@@@@+.. .++@@@@@@@@@@+@X...++@@@@@@@@@@@@",
"....@+@@@@@@@@@@@@@@@+...X@+@@@@@@@@@@++X...+@@@@@@@@@@@@@",
"....@+@@@@@@@@@@@@@@@+...X@+@@@@@@@@@@++X...+@@@@@@@@@@@@@",
".. .+++@@@@@@@@@@@@@@@. ..+++@+@@@+@@@++X...++@@@@@@@@@@@@",
"....+++++++++++++++++O....++++++++++++++....++++++++++++++",
".. .++@+@@+@++@@@@@@@+. .X++@+++@+++@+++X...++@@+@++@@++@+",
"....+X++++O+++++O++++O.. .+X++++++++++++....O+++O++++++O++",
"........... . . .. . ....... . .. .. . . ......... . .....",
"..........................................................",
" ... .......... .... ... .... ... ... ... .... ..... .....",
"XX+XXXOX.. XX+XXOOOOOOOOOOOOO. .XXXX+XX+.+XXXXXX...XXXOOXX",
"+@@@++@O ..+++++@@@@@@@@@@@+@o ..+++@@@@@@@@++++ . X++@@@@",
"+++++++X.. +++++++++++++++++@....++++++++++++++X...X++++++",
"@@@@@++X ..+@++@@@@@@@@@@@++@o..X+++@@@@@@@@++@+...O@+@@@@",
"@@@@+++X...+@+@@@@@@@@@@@@@+@o ..+++@@@@@@@+++++...+@+@@@@",
"@@@@@+@O ..+++@@@@@@@@@@@@@+@O ..+++@@@@@@@@@+++...O@+@@@@",
"@@@@@+@O.. +++@@@@@@@@@@@@@+@O...+++@@@@@@@@@+++...X@+@@@@",
"@@@@@+@O ..+++@@@@@@@@@@@@++@o...+++@@@@@@@@@+@O . +@+@@@@",
"@@@@@+@O...+@+@@@@@@@@@@@@@+@O ..+++@@@@@@@@@+@+...X@+@@@+",
"+++++++X ..+++++++++++++@++++. ..++++++++++++++X...O++++++",
"@@++@+@X . X++++@@++@@@@++@+@. ..+++@@@@++@@@++X ..O@+@+++",
"X.....X......X...O.....O..............XX..X.XX........X...",
"........................................ ................ ",
"................................................ .........",
".........................................................."
};
