/* XPM */
static char *_9ef6f40c94b4d5ead8ece5ca5538885rALQwF4jlBmUypLT[] = {
/* columns rows colors chars-per-pixel */
"58 58 12 1 ",
"  c #0F0C0C",
". c #100C0C",
"X c #110F0F",
"o c #120F0F",
"O c #130F0F",
"+ c #131010",
"@ c #151212",
"# c #151313",
"$ c #171515",
"% c #181313",
"& c #181414",
"* c #181616",
/* pixels */
"oooo@&&&**********&*%@oooO@%@&&&****&&@@+ooo@@&&&&********",
"oooo@@$&&**********&%OoooO@%&&&&***&&*$@Oooo@$&&*&********",
"oooo@@$&**********$*%@oooO@@&&******&$$@Oooo@@&&**********",
"oooo@$$&&*********$$@OoooO@%&*&****&*$$@Oooo$$$&**********",
"oooo@%$&******&&**&$$$oooo@@*&&*&&**&@@@OoooO@&&********&&",
"oooo@%$&&*&**&&&*&&$@@ooo@@&$$*&&&*&&%%@Oooo@%&&*&*&&**&&&",
"oooo@@@&&&*&&*&&&*&$@@oooO@@$&&&&&&&&&%@Oooo@%%&&*&**&&*&&",
" ooo@%%%&&&&&&%%&&&$&@oooO@$$&&&&&&&%%%@OoooO%@&&&&&&&&&&@",
"o oo@@%%@@%%@%%%@%%%@@oooo@%%%@%@&%%@&@@oooo@@@%$$@@@%%%@@",
"o  o@%@%%%%@%%@%&%@%@oo  oO%@%@%@@@&&@%@o ooO%@%$$&&%%@%%%",
"o oooo@oO@@@O@@@@@@O@oo .ooOO@@@@@@+@@OOo.oo@@O@O@@@O@@@@@",
"ooooooooOooooooooooooOooooooOoooooooooOooooooOoooooooooooO",
" ooooooooooooooooooo+o  ooooOoooo+oooo@o.oo.oooooo.ooooooo",
"oooooooooooooooooooo++++ooooooo. +oooooooooooooooooooooooo",
"o@ooooooo oooo@o@+@O++@OO@ooooo.++++ooo@o@o@@oooo.oooo@O@@",
"@@@$@@@@ o o@@@@@&@@$+&@@@@@@o o++@@+&@@&@@@@@@o o o@@@@@@",
"&@@&@@@ooooO@@%&@@&&$$$$@%@@@oooo@@@%@$@&@%%@@@@ooo+@@@%%&",
"&&&&&@@oooo@%&@@&$@$$&$$$%&@@@ ooo%%%%$&&$&@&@@@ooo+@@&%$@",
"&&&&%%$oooo@%@%&&&&&*&&&%&$%@+ooo@%@%&&&&&&&@&$+ooo@$@@&%&",
"&&&&&@@@ooo@%&&&&&&&&*&&%&@&$oooo@%%%&&&&&&&$@@@ooo@@%$&&&",
"&*&&@%@@oooo%%%&&*&&&&&&&&%$++++o@%%&&&&&&&&&&@ooooo$@&&&&",
"&&&&%%&oooOo@%%&&&&%&&&&&&@@$++ o@%@&&&&*&&&@&@@o o@@&%&&&",
"&@$$%@@Oooo@@%%%&$$$$$$%&&$@++o o@@%$@%&&$$@&&@@ooo@@@@&$$",
"@$$$@%OoooOO%@@@&$$$$$$@@$@$@+ +o@@@%%%@$$$@@@@@ ooo@@$&@$",
"@&@@@@@o o.o@o@@@$@&@@@@@$@@@ooooo@@@@@@@@@@@@@o o o@@@@@@",
"+$@+++ooo.oo@Oo@o@oO@@@O+@oooo oooOOO@@@@@@oOOOoo ooooo@@@",
"ooooooooo ooooooo@ooooooooooo oooooooooooooooooooo  oooooo",
"ooo oooooooOoooooooooo.oooooooo oooOoooooooooooo ooooooooo",
" ooooooo+oooooooooooooooooo+oooooooOOOooooooOooooooooooooo",
"o ooo@o@@@@oo@@@o@@@@Oo.oo@@o@O@@@@o@o@@o  oo@@@o@@@@@@O@@",
"o oo@@@&$@@$%%$@&@@@%@o. o@@@&%%$@%@%@@@o oo@@$@%%$@&@%%$@",
"o o@@@&@$&&&&&$$&$&%@ooo.o@@&@&&$$&&%%@@o oo@@&&&&$$&$&&$$",
"oo o@@%&&&&*&*&*&*&&$$oooo@@$&&&*&*&&&@@+oooo%@%*&*&*&*&*&",
" ooo@%&&&&*********&$@oooo@@&&&&****&&&@oooo@%%%**********",
"oooo@%%%&*&*&*&*&&&@@@+ooO@%&&&&*&&*%%%@oooo@$&&&&&&*&*&*&",
"o oo@@%%&&*&*&*&&&&&@@oooo@%&&&%&*&&%%@@Oooo@$$&&&&&&*&*&*",
"o ooo@%@&&&%&$&&%%&%@@oooo@%%%@%&&%&%@%@ooooo%%@%&&&&&%%&&",
"o oo@@%%@%%@&*$$%@@&%oo .oO%%@%%$$@%%&@@oooo@@%%%@%@&@%%&&",
"o  oo%@@@&%%%%@@%%@%@Oo .oO%@@%%$@@@@@@%o ooo@@&%%%%%@%@&@",
"o ooO@O%@@@O@@@@%O@@@Oo .OOO@@@O$@@@@@OOoooOO+@@@O@@@@@@$@",
"oooooooo+oooooooooooooo  oooo+++ooooooooooo.oooooooooooo++",
"..oooooooo ooooooooooooooooooo  ooooooooo.oooooo ooooooo++",
"ooooooooooooooooooo+oooooo++o oooooooo+ooooooooo ooooooo+ ",
"@oo@@oOoo ooOO@o+@@@@+@+++++++ ooo@+@++@o@o@Oooooooooo@o++",
"@@$@@@@O ooO@@@@$@@@@$$@$$@@$+ ooO@@@@$@$@$@@@@O o o@@@@$@",
"@%%@%@@oooOO@%@%@$$@@@@$@@@@++o oo%@%@@%@%@&@%@Oo oo@@$%$$",
"&&$@%@@oooo@@%%%$$$$&&&&&@@@++ooo@@%$$&&$@&@%@@@oo++@@@&@$",
"&&&%@%@oooo@&@%%&&&&&&&&&&&&@++ o@@%&&&&&&%%%@@@ooo@@%&&&$",
"&&&&$@@@ooo@%%&&&&&*&*&*&&&@@@+oo@@%&&&&&&&&&$&++oo+$$@$&&",
"&&&&$$@@oooO@%&&&&&&*&*&&&$$$+++o@%%&&&&&&&&$$@ooo++@@&%&%",
"&&&&@$@@ooOO%%%%&&&&&&&*%%%%@++ o@%@&&&&&&%%$$@@ooo+@&&&%%",
"$$$$&@@+ooO@@%@%&&$$$$$$%@%@@+ +oO%%$$&&%@&%$@@@ooo+@@&@%%",
"@%@@@@@+oooo@@%@@%&@$@$@@%@@@o oOO%@@&%@%%@%@%oooooo@@@%@@",
"@@@@@@@o...oO@@O@@@@$@@@@@@@@o oOo@@@@@@@@@@@o@o . o@@@@@@",
"ooooooooo.ooOOoo@oooooooooooooo ooooooooooooOoooo oooooooo",
"ooooooooo.oooOoooooooooooooo oo ooooooooooooooo oooooooooo",
"oooooooooo.ooooooooooooooooooooooooooooooooooooo oo oooooo",
"oooooooooooooooooooooooooooooooooooooooooooooooooooooooooo"
};
