/* XPM */
static char *result[] = {
/* columns rows colors chars-per-pixel */
"58 58 173 2 ",
"   c #010405",
".  c #070906",
"X  c #0A0A07",
"o  c #040709",
"O  c #06090A",
"+  c #0B0D0D",
"@  c #141409",
"#  c #1E140C",
"$  c #1A180A",
"%  c #0B0F10",
"&  c #0D1011",
"*  c #121414",
"=  c #131514",
"-  c #1E1B13",
";  c #171A1B",
":  c #1A1D1D",
">  c #21160D",
",  c #2B1C0F",
"<  c #2D1D10",
"1  c #24210B",
"2  c #29250D",
"3  c #2E290E",
"4  c #352F0F",
"5  c #38310F",
"6  c #2E2116",
"7  c #292319",
"8  c #3A2513",
"9  c #3E2C1D",
"0  c #343015",
"q  c #3A3410",
"w  c #1E2121",
"e  c #212423",
"r  c #222423",
"t  c #212424",
"y  c #262928",
"u  c #2A2C2B",
"i  c #2D312F",
"p  c #2D2F30",
"a  c #2E3130",
"s  c #333634",
"d  c #353837",
"f  c #363937",
"g  c #373939",
"h  c #3A3C3C",
"j  c #442A16",
"k  c #4A2D16",
"l  c #4F3017",
"z  c #4C311B",
"x  c #523219",
"c  c #59361A",
"v  c #5E381B",
"b  c #623B1C",
"n  c #433624",
"m  c #533822",
"M  c #443F36",
"N  c #3E403E",
"B  c #4A4113",
"V  c #72431F",
"C  c #464136",
"Z  c #5D4A35",
"A  c #594C3A",
"S  c #6B4728",
"D  c #734521",
"F  c #744825",
"G  c #7A4C27",
"H  c #754C2D",
"J  c #7D4E28",
"K  c #764F30",
"L  c #6B5638",
"P  c #775133",
"I  c #785637",
"U  c #785539",
"Y  c #7A623F",
"T  c #3F4140",
"R  c #414343",
"E  c #454946",
"W  c #464847",
"Q  c #4A4A47",
"!  c #464A49",
"~  c #4B4D4B",
"^  c #4B4E4D",
"/  c #514C43",
"(  c #4F514F",
")  c #52534C",
"_  c #4F5051",
"`  c #515351",
"'  c #535554",
"]  c #5E5850",
"[  c #575859",
"{  c #5A5C5B",
"}  c #765840",
"|  c #7B5D46",
" . c #7B6240",
".. c #7A644D",
"X. c #666052",
"o. c #696353",
"O. c #746152",
"+. c #7E6552",
"@. c #7C6F59",
"#. c #5F6061",
"$. c #626463",
"%. c #696967",
"&. c #676868",
"*. c #6A6B6B",
"=. c #716F6B",
"-. c #747069",
";. c #737473",
":. c #7B7C7B",
">. c #826F1D",
",. c #85711E",
"<. c #835932",
"1. c #976739",
"2. c #856842",
"3. c #9C7C4F",
"4. c #806A58",
"5. c #8F7856",
"6. c #8F7C5E",
"7. c #9D7C50",
"8. c #917C5C",
"9. c #A07E51",
"0. c #857965",
"q. c #857C75",
"w. c #7F807F",
"e. c #9A8322",
"r. c #AD9225",
"t. c #CFAE2C",
"y. c #D2B12C",
"u. c #D9B72E",
"i. c #DFBB2F",
"p. c #DEBB32",
"a. c #E2BE2F",
"s. c #EAC531",
"d. c #EEC934",
"f. c #F4CD33",
"g. c #FCD435",
"h. c #A38253",
"j. c #AD8958",
"k. c #B18C59",
"l. c #BB945E",
"z. c #87827E",
"x. c #A58B65",
"c. c #AE9167",
"v. c #B89767",
"b. c #CC985C",
"n. c #C29962",
"m. c #C8A36F",
"M. c #D4A76B",
"N. c #D1A972",
"B. c #DFAF70",
"V. c #DFB070",
"C. c #E1AD6C",
"Z. c #E5B06E",
"A. c #E9B877",
"S. c #EEBD7A",
"D. c #F0BD78",
"F. c #F5C17C",
"G. c #FCC67D",
"H. c #FFC97F",
"J. c #818181",
"K. c #828383",
"L. c #898583",
"P. c #8A8886",
"I. c gray54",
"U. c #8B8B8B",
"Y. c gray55",
"T. c #8D8D8D",
"R. c #8E8E8E",
"E. c #909091",
"W. c #FFC980",
"Q. c #FFCC81",
"!. c #FFCD81",
"~. c #FFD185",
"^. c None",
/* pixels */
"^.^.^.^.^.^.^.^.^.^.^.^.^.^.^.^.^.^.^.^.^.^.^.^.^.^.^.^.^.^.^.^.^.^.^.^.^.^.^.^.^.^.^.^.^.^.^.^.^.^.^.^.^.^.^.^.^.^.",
"^.^.^.^.^.^.^.^.^.^.^.^.^.^.^.^.^.^.^.^.^.^.^.^.^.^.^.^.^.^.^.^.^.^.^.^.^.^.^.^.^.^.^.^.^.^.^.^.^.^.^.^.^.^.^.^.^.^.",
"^.^.^.^.^.^.^.^.^.^.^.^.^.^.^.^.^.^.^.^.^.^.^.^.^.^.^.^.^.^.^.^.^.^.^.^.^.^.^.^.^.^.^.^.^.^.^.^.^.^.^.^.^.^.^.^.^.^.",
"^.^.^.^.^.^.^.^.^.^.^.^.^.^.^.^.^.^.^.^.^.^.^.^.^.^.^.^.^.^.^.^.^.^.^.^.^.^.^.^.^.^.^.^.^.^.^.^.^.^.^.^.^.^.^.^.^.^.",
"^.^.^.^.^.^.^.^.^.^.^.^.^.^.^.^.^.^.^.^.^.^.^.^.^.^.^.^.^.^.^.^.^.^.^.^.^.^.^.^.^.^.^.^.^.^.^.^.^.^.^.^.^.^.^.^.^.^.",
"^.^.^.^.^.^.^.^.^.^.^.^.^.^.^.^.^.^.^.^.^.^.^.^.^.^.            ^.^.^.^.^.^.^.^.^.^.^.^.^.^.^.^.^.^.^.^.^.^.^.^.^.^.",
"^.^.^.^.^.^.^.^.^.^.^.^.^.^.^.^.^.^.^.^.^.^.^.^.^.^.            ^.^.^.^.^.^.^.^.^.^.^.^.^.^.^.^.^.^.^.^.^.^.^.^.^.^.",
"^.^.^.^.^.^.^.^.^.^.^.^.^.^.^.^.^.^.^.^.^.^.^.^.^.^.  o & %     ^.^.^.^.^.^.^.^.^.^.^.^.^.^.^.^.^.^.^.^.^.^.^.^.^.^.",
"^.^.^.^.^.^.^.^.^.^.^.^.^.^.^.^.^.^.^.                + N T +     o     ^.^.^.^.^.^.^.^.^.^.^.^.^.^.^.^.^.^.^.^.^.^.",
"^.^.^.^.^.^.^.^.^.^.^.^.^.^.^.^.^.^.^.                + E E +             ^.^.^.^.^.^.^.^.^.^.^.^.^.^.^.^.^.^.^.^.^.",
"^.^.^.^.^.^.^.^.^.^.^.^.^.^.^.^.^.^.^.s R T T R T R R R ! ! R T R N T R p ^.^.^.^.^.^.^.^.^.^.^.^.^.^.^.^.^.^.^.^.^.",
"^.^.^.^.^.^.^.^.^.^.^.^.^.^.^.^.^.    { U.U.U.U.U.T.U.J.( ' J.Y.Y.Y.Y.Y.!     ^.^.^.^.^.^.^.^.^.^.^.^.^.^.^.^.^.^.^.",
"^.^.^.^.^.^.^.^.^.^.^.^.^.^.^.^.^.O + { U.U.I.I.I.I.I.z.( ( J.U.U.I.I.Y.~ o O ^.^.^.^.^.^.^.^.^.^.^.^.^.^.^.^.^.^.^.",
"^.^.^.^.^.^.^.^.^.^.^.^.^.      O [ *.J.U.U.I.I.U.I.I.w.( ( w.U.U.I.I.U.:.*.~         ^.^.^.^.^.^.^.^.^.^.^.^.^.^.^.",
"^.^.^.^.^.^.^.^.^.^.^.^.^.      O *.Y.U.I.I.U.U.U.U.Y.w.( ( J.Y.U.U.U.U.Y.R.{         ^.^.^.^.^.^.^.^.^.^.^.^.^.^.^.",
"^.^.^.^.^.^.^.^.^.^.^.^.^.q 4 . O *.U.I.J.:.:.:.:.:.;.( ( ;.:.:.:.:.:.w.R.{ {   + q q ^.^.^.^.^.^.^.^.^.^.^.^.^.^.^.",
"^.^.^.^.^.^.^.^.^.^.^.  3 s.u.1 o *.I.I.*.( ( ~ ( ( ( Q ! ( ) ( ( ( ( *.T.{ {   q s.y.$   ^.^.^.^.^.^.^.^.^.^.^.^.^.",
"^.^.^.^.^.^.^.^.^.^.^.  3 d.a.1 o *.I.Y.*.E E ( ( Q E ! ! ! Q ! ! ! E *.R.{ {   q f.y.@   ^.^.^.^.^.^.^.^.^.^.^.^.^.",
"^.^.^.^.^.^.^.^.^.  q ,.e.f.a.1 o *.;.%.z.c...w C x.c.x.c.x.x.C r ..c.*.R.R R   q f.s.e.>.2   ^.^.^.^.^.^.^.^.^.^.^.",
"^.^.^.^.^.^.^.^.^.  B g.g.g.a.1 o *.$.N j.H.h.  9 G.H.H.H.H.G.n   7.!.*.R.p p   q f.g.g.d.3   ^.^.^.^.^.^.^.^.^.^.^.",
"^.^.^.^.^.^.^.^.^.  B f.g.s.y.$ o *.$.( x.F.3.@ C A.D.D.S.D.A.C @ 7.F.*.R.s s   5 i.s.d.p.3   ^.^.^.^.^.^.^.^.^.^.^.",
"^.^.^.^.^.^.^.^.^.  B f.y.q 2 . O *.L.w.=.X.5.M.v.o.o.X.X.o.o.v.M.6.X.*.R.' '   X 2 0 d.d.$   ^.^.^.^.^.^.^.^.^.^.^.",
"^.^.^.^.^.^.^.^.^.  B g.t.+     O *.I.I.&.T h.!.N.( ! E E ! ! M.H.6.E %.R.{ {       + 0 d.&   ^.^.^.^.^.^.^.^.^.^.^.",
"^.^.^.^.^.^.^.^.^.  4 r.e.@     o *.I.I.;.{ ;.m.x.( ) @.@.) ( x.m.0.{ ;.Y.{ {       + 0 d.+   ^.^.^.^.^.^.^.^.^.^.^.",
"^.^.^.^.^.^.^.^.^.    O . ^.^.  O *.I.I.I.I.;.! ( ! X.S.S.o.! ! ( ;.I.I.Y.{ {     ^.^.o o     ^.^.^.^.^.^.^.^.^.^.^.",
"^.^.^.^.^.^.^.^.^.        ^.^.  O *.I.I.I.I.;.( ! ! o.D.S.X.! ! ! ;.I.I.Y.{ {     ^.^.        ^.^.^.^.^.^.^.^.^.^.^.",
"^.^.^.^.^.^.^.^.^.    ^.^.^.^.  O ~ w.I.;.#.0.v.5.r r Z Z r 7 8.v.#.#.;.Y.{ {     ^.^.^.^.  o ^.^.^.^.^.^.^.^.^.^.^.",
"^.^.^.^.^.^.^.^.^.    ^.^.^.^.  o g ;.Y.*.! 6.Q.l..         o l.!.E E *.R.{ {     ^.^.^.^.    ^.^.^.^.^.^.^.^.^.^.^.",
"^.^.^.^.^.^.^.^.^.    ^.^.^.^.  O f *.L.&.E 6.H.n., - - $ - , v.Q.E E $.:._ _     ^.^.^.^.    ^.^.^.^.^.^.^.^.^.^.^.",
"^.^.^.^.^.^.^.^.^.^.^.^.^.^.^.    = t W ` E 6.H.F.V.V.B.B.B.V.F.G.E ! d e * &     ^.^.^.^.^.^.^.^.^.^.^.^.^.^.^.^.^.",
"^.^.^.^.^.^.^.^.^.^.^.^.^.^.^.    = = g ^ ! 6.H.Q.Q.Q.Q.Q.Q.Q.Q.Q.E ~ T y         ^.^.^.^.^.^.^.^.^.^.^.^.^.^.^.^.^.",
"^.^.^.^.^.^.^.^.^.^.^.^.^.^.^.    + + r i i A h.7.7.7.7.7.7.7.3.7.M M a w       o ^.^.^.^.^.^.^.^.^.^.^.^.^.^.^.^.^.",
"^.^.^.^.^.^.^.^.^.^.^.^.^.^.^.                                                  o ^.^.^.^.^.^.^.^.^.^.^.^.^.^.^.^.^.",
"^.^.^.^.^.^.^.^.^.^.^.^.^.^.^.^.o   o               o o o o o o o   o . o o o   ^.^.^.^.^.^.^.^.^.^.^.^.^.^.^.^.^.^.",
"^.^.^.^.^.^.^.^.^.^.^.^.^.  & [ #.T s s s :   > l S j.j.j.k.j.j.S x 2.k.L   ^.^.^.^.^.^.^.^.^.^.^.^.^.^.^.^.^.^.^.^.",
"^.^.^.^.^.^.^.^.^.^.^.^.^.  & :.Y.{ ! ~ _ y   , V 1.W.Q.Q.Q.H.G.1.V b.~.2.    ^.^.^.^.^.^.^.^.^.^.^.^.^.^.^.^.^.^.^.",
"^.^.^.^.^.^.^.^.^.^.^.^.^.; r -.q.] / / / u & 6 b <.C.Z.Z.Z.Z.C.1.V 9.M.2.7 7 ^.^.^.^.^.^.^.^.^.^.^.^.^.^.^.^.^.^.^.",
"^.^.^.^.^.^.^.^.^.^.^.  : :.:.P G F D D F Z E u . < G G J J G J D D 8 @ I F.7.        ^.^.^.^.^.^.^.^.^.^.^.^.^.^.^.",
"^.^.^.^.^.^.^.^.^.^.^.  : J.L.K D D D D D Z ~ p   # V D V D D D D D ,    .!.h.        ^.^.^.^.^.^.^.^.^.^.^.^.^.^.^.",
"^.^.^.^.^.^.^.^.^.^.^.  : J.L.H D | +.P D Z ~ a   # D F ....F V D D <    .!.h.  + r w + ^.^.^.^.^.^.^.^.^.^.^.^.^.^.",
"^.^.^.^.^.^.^.^.^.^.^.  : J.L.K F q.U.| V Z ~ p   > V P L.L.P V D D ,   Y Q.h.  = ! R + ^.^.^.^.^.^.^.^.^.^.^.^.^.^.",
"^.^.^.^.^.^.^.^.^.^.^.  : J.z.H D q.P.| V Z _ a   # V P z.z.P V D D <   I Q.9.  = E T O ^.^.^.^.^.^.^.^.^.^.^.^.^.^.",
"^.^.^.^.^.^.^.^.^.^.^.  : J.L.H D K U H D O.:._   > V F I I F D D D <   z 1.S   = E ( = ^.^.^.^.^.^.^.^.^.^.^.^.^.^.",
"^.^.^.^.^.^.^.^.^.^.^.  : K.L.K V V V V V 4.E.[   # V D D V D D D D <   8 D k   = E ' = ^.^.^.^.^.^.^.^.^.^.^.^.^.^.",
"^.^.^.^.^.^.^.^.^.^.^.  : &.%.} U U U U U O.*.R   @ c c c c c c c v >   , v 8   = ! ( = ^.^.^.^.^.^.^.^.^.^.^.^.^.^.",
"^.^.^.^.^.^.^.^.^.^.^.^.^.o = ;.I.L.P.P.I.E O o         o o   . o o     o o o   = ! T = ^.^.^.^.^.^.^.^.^.^.^.^.^.^.",
"^.^.^.^.^.^.^.^.^.^.^.^.^.  & :.R.Y.U.U.R.R                                     = ! T + ^.^.^.^.^.^.^.^.^.^.^.^.^.^.",
"^.^.^.^.^.^.^.^.^.^.^.^.^.^.& h R R R R T E ~ T u y u y u u E Q ~ Q w     ^.^.^.= = = O ^.^.^.^.^.^.^.^.^.^.^.^.^.^.",
"^.^.^.^.^.^.^.^.^.^.^.^.^.^.^.            Q E.;.~ ~ ( ~ ! ' J.Y.Y.Y.g     ^.^.^.^.^.^.^.^.^.^.^.^.^.^.^.^.^.^.^.^.^.",
"^.^.^.^.^.^.^.^.^.^.^.^.^.^.^.            Q I.-.Q Q E R E ~ :.P.L.L.s     ^.^.^.^.^.^.^.^.^.^.^.^.^.^.^.^.^.^.^.^.^.",
"^.^.^.^.^.^.^.^.^.^.^.^.^.^.^.^.^.^.^.    9 P K F m = & @ = S P P P 6     ^.^.^.^.^.^.^.^.^.^.^.^.^.^.^.^.^.^.^.^.^.",
"^.^.^.^.^.^.^.^.^.^.^.^.^.^.^.^.^.^.^.    8 D D D c       X b F D D <     ^.^.^.^.^.^.^.^.^.^.^.^.^.^.^.^.^.^.^.^.^.",
"^.^.^.^.^.^.^.^.^.^.^.^.^.^.^.^.^.^.^.    , x x x j O     X k x x x #     ^.^.^.^.^.^.^.^.^.^.^.^.^.^.^.^.^.^.^.^.^.",
"^.^.^.^.^.^.^.^.^.^.^.^.^.^.^.^.^.^.^.          o   ^.^.^.^.      o       ^.^.^.^.^.^.^.^.^.^.^.^.^.^.^.^.^.^.^.^.^.",
"^.^.^.^.^.^.^.^.^.^.^.^.^.^.^.^.^.^.^.              ^.^.^.^.              ^.^.^.^.^.^.^.^.^.^.^.^.^.^.^.^.^.^.^.^.^.",
"^.^.^.^.^.^.^.^.^.^.^.^.^.^.^.^.^.^.^.^.^.^.^.^.^.^.^.^.^.^.^.^.^.^.^.^.^.^.^.^.^.^.^.^.^.^.^.^.^.^.^.^.^.^.^.^.^.^.",
"^.^.^.^.^.^.^.^.^.^.^.^.^.^.^.^.^.^.^.^.^.^.^.^.^.^.^.^.^.^.^.^.^.^.^.^.^.^.^.^.^.^.^.^.^.^.^.^.^.^.^.^.^.^.^.^.^.^.",
"^.^.^.^.^.^.^.^.^.^.^.^.^.^.^.^.^.^.^.^.^.^.^.^.^.^.^.^.^.^.^.^.^.^.^.^.^.^.^.^.^.^.^.^.^.^.^.^.^.^.^.^.^.^.^.^.^.^."
};
