/* XPM */
static char *_60612ee22b04225ccc74a2c02cf6985ORud6XtMBnoEuiSJ[] = {
/* columns rows colors chars-per-pixel */
"58 58 168 2 ",
"   c None",
".  c #010405",
"X  c #070906",
"o  c #0A0A07",
"O  c #040709",
"+  c #06090A",
"@  c #0B0D0D",
"#  c #141409",
"$  c #1E140C",
"%  c #1A180A",
"&  c #0B0F10",
"*  c #0D1011",
"=  c #131514",
"-  c #1E1B13",
";  c #171A1B",
":  c #1A1D1D",
">  c #21160D",
",  c #2B1C0F",
"<  c #2D1D10",
"1  c #24210B",
"2  c #29250D",
"3  c #2E290E",
"4  c #352F0F",
"5  c #38310F",
"6  c #2E2116",
"7  c #292319",
"8  c #3A2513",
"9  c #3E2C1D",
"0  c #343015",
"q  c #3A3410",
"w  c #1E2121",
"e  c #222423",
"r  c #262928",
"t  c #2A2C2B",
"y  c #2D312F",
"u  c #2D2F30",
"i  c #2E3130",
"p  c #333634",
"a  c #363937",
"s  c #373939",
"d  c #3A3C3C",
"f  c #442A16",
"g  c #4A2D16",
"h  c #4F3017",
"j  c #4C311B",
"k  c #523219",
"l  c #59361A",
"z  c #5E381B",
"x  c #623B1C",
"c  c #433624",
"v  c #533822",
"b  c #3E403E",
"n  c #4A4113",
"m  c #72431F",
"M  c #464136",
"N  c #5D4A35",
"B  c #594C3A",
"V  c #6B4728",
"C  c #734521",
"Z  c #744825",
"A  c #7A4C27",
"S  c #754C2D",
"D  c #7D4E28",
"F  c #764F30",
"G  c #6B5638",
"H  c #775133",
"J  c #785637",
"K  c #785539",
"L  c #7A623F",
"P  c #3F4140",
"I  c #414343",
"U  c #454946",
"Y  c #4A4A47",
"T  c #464A49",
"R  c #4B4D4B",
"E  c #514C43",
"W  c #4F514F",
"Q  c #52534C",
"!  c #4F5051",
"~  c #535554",
"^  c #5E5850",
"/  c #575859",
"(  c #5A5C5B",
")  c #625E42",
"_  c #765840",
"`  c #7B5D46",
"'  c #7B6240",
"]  c #7A644D",
"[  c #666052",
"{  c #696353",
"}  c #746152",
"|  c #7E6552",
" . c #7C6F59",
".. c #5F6061",
"X. c #626463",
"o. c #696967",
"O. c #676868",
"+. c #6A6B6B",
"@. c #716F6B",
"#. c #747069",
"$. c #737473",
"%. c #7B7C7B",
"&. c #826F1D",
"*. c #85711E",
"=. c #835932",
"-. c #976739",
";. c #856842",
":. c #9C7C4F",
">. c #806A58",
",. c #8F7856",
"<. c #8F7C5E",
"1. c #9D7C50",
"2. c #917C5C",
"3. c #A07E51",
"4. c #857965",
"5. c #887B69",
"6. c #917E60",
"7. c #857C75",
"8. c #7F807F",
"9. c #9A8322",
"0. c #AD9225",
"q. c #CFAE2C",
"w. c #D2B12C",
"e. c #D9B72E",
"r. c #DFBB2F",
"t. c #DEBB32",
"y. c #E2BE2F",
"u. c #EAC531",
"i. c #EEC934",
"p. c #F4CD33",
"a. c #FCD435",
"s. c #A38253",
"d. c #AD8958",
"f. c #B18C59",
"g. c #BB945E",
"h. c #87827E",
"j. c #A58B65",
"k. c #AE9167",
"l. c #B89767",
"z. c #CC985C",
"x. c #C29962",
"c. c #C8A36F",
"v. c #D4A76B",
"b. c #D1A972",
"n. c #DFAF70",
"m. c #DFB070",
"M. c #E1AD6C",
"N. c #E5B06E",
"B. c #E9B877",
"V. c #EEBD7A",
"C. c #F0BD78",
"Z. c #F5C17C",
"A. c #FCC67D",
"S. c #FFC97F",
"D. c #818181",
"F. c #828383",
"G. c #898583",
"H. c #8A8886",
"J. c gray54",
"K. c #8B8B8B",
"L. c gray55",
"P. c #8D8D8D",
"I. c #8E8E8E",
"U. c #909091",
"Y. c #FFC980",
"T. c #FFCC81",
"R. c #FFCD81",
"E. c #FFD185",
/* pixels */
"                                                                                                                    ",
"                                                                                                                    ",
"                                                                                                                    ",
"                                                                                                                    ",
"                                                                                                                    ",
"                                                    . . . . . .                                                     ",
"                                                    . . . . . .                                                     ",
"                                                    . O * & . .                                                     ",
"                                      . . . . . . . . @ b P @ . . O . .                                             ",
"                                      . . . . . . . . @ U U @ . . . . . .                                           ",
"                                      p I P b P P I I I T T I P I b P P u                                           ",
"                                  . . ( K.L.K.K.K.P.K.D.W ~ D.P.L.L.L.K.T . .                                       ",
"                                  + @ ( K.K.K.H.K.K.K.h.W W D.K.K.K.K.K.R O +                                       ",
"                          . . . + / +.D.K.K.K.K.K.K.K.D.W W %.K.K.K.K.K.%.+.R . . . .                               ",
"                          . . . + +.P.K.K.K.K.K.K.K.K.%.W W D.P.K.K.K.K.P.P.( . . . .                               ",
"                          q 4 X + +.K.K.K.%.%.%.%.%.%.$.W ~ $.%.%.%.%.%.D.P.( . @ q q                               ",
"                      . 3 u.e.1 O +.K.K.K.+.W W R W W W Y T Q Q W W W W +.P.( . q u.w.% .                           ",
"                      . 3 i.y.1 O +.K.K.L.+.U U W W Y U U T T Y T T T U +.P.( . q p.w.# .                           ",
"                  . q *.9.p.y.1 O +.K.$.+.h.k.] w M j.k.j.k.j.j.M e ] k.5.+.I . q p.u.9.&.2 .                       ",
"                  . n a.a.a.y.1 O +.K.X.d d.S.s.. 9 A.S.Y.Y.Y.A.c . 1.T.j.T i . q p.a.a.i.3 .                       ",
"                  . n p.a.u.w.% O +.K.X.! j.Z.:.# M B.C.V.V.C.B.M # 1.Z.j.! p . 5 r.u.i.t.3 .                       ",
"                  . n p.w.q 2 X + +.K.G.8.@.[ ,.v.l.{ { [ [ { { l.v.<.[ +.D.~ . o 2 0 ) ^ % .                       ",
"                  . n a.q.@ . . + +.P.K.K.O.b s.T.b.W T U U T T v.S.<.U o.P.( . . . @ I T * .                       ",
"                  . 4 0.9.# . . O +.P.K.K.$.( $.c.j.W Q  . .Q W j.c.4.( $.P.( . . . @ i p @ .                       ",
"                  . . + X     . + +.L.K.K.K.K.$.T W T [ V.V.{ T T W $.K.K.K.( . .     O O . .                       ",
"                  . . . .     . + +.L.K.H.K.K.$.W T T { C.V.[ T T T $.K.K.K.( . .     . . . .                       ",
"                  . .         . + R X.8.J.$...4.l.,.e e N N e 7 2.l.4...$.L.( . .         . O                       ",
"                  . .         . O s T $.L.O.T <.T.g.X . . . . O g.T.<.U +.P.( . .         . .                       ",
"                  . .         . + s U +.G.O.U <.S.x., - - % - , l.T.<.U X.%.! . .         . .                       ",
"                              . . = : d ~ W U <.S.Z.m.m.n.n.n.m.Z.A.<.T i = * . .                                   ",
"                              . . = = s W T T <.S.T.T.T.T.T.T.T.T.T.6.R r . . . .                                   ",
"                              . . @ @ e y y y B s.1.1.1.1.1.:.:.:.1.B i w . . .                                     ",
"                              . . . . . . . . . . . . . . . . . . . . . .                                           ",
"                              O O . O . . . . . . . O O O + O O O . O X +                                           ",
"                          . * / ..P p p p : . > j V d.d.d.f.d.d.V k ;.f.G .                                         ",
"                          . * %.L.( T R ! r . < m -.Y.Y.T.T.S.A.-.m z.E.;.. .                                       ",
"                          ; e #.7.^ E E E t & 6 x =.M.N.N.N.N.M.-.m 3.v.;.7 7                                       ",
"                      . : %.%.H A Z C C Z N Y t o , A A D D A D C C 8 # J Z.1.. . . .                               ",
"                      . : D.G.F C C C C C N R u . $ m C m C C C C C , . L T.s.. . . .                               ",
"                      . : D.G.S C ` | H C N R u . $ m Z ] ] Z m C C , . ' T.s.. @ e w @                             ",
"                      . : D.G.F Z 7.L.` m N R u . > m H G.G.H m C C , . L T.s.. = T I @ . . . . . . . .             ",
"                      . : D.h.S C 7.H.` m N ~ t . $ m H h.h.H m C C < . J T.3.. = U I & + + + + + . . .             ",
"                      . : D.G.S C S K S C } %.! . > m Z J J Z C C C < . j -.V . = U W +.+.+.+.+.+.i . .             ",
"                      . : D.G.F m m m m m  .U./ . $ m C C m C C C C < . 8 C g . = U ~ K.L.L.P.P.U.d . .             ",
"                      . : O.+.K K K K K K } +.I . # l l l l l l l z > . , z 8 . = T Q +.+.+.+.+.+.p .               ",
"                          + = $.K.G.G.K.K.U + + . . . . O O . X O O . . O O O . = T P @ + + @ + +                   ",
"                          . * %.P.L.K.K.P.I . . . . . . . . . . . . . . . . . O = T I @ . . . . .                   ",
"                            * d I I I I P U R b t r t r t t U Y R Y w . .       & e w @                             ",
"                              . . . . . . Y U.$.R R ! R T ~ D.P.P.K.s . .         . .                               ",
"                              . . . . . . Y K.#.Y Y U I U R %.H.G.G.p . .         . .                               ",
"                                      . . 9 H F Z v = * # = V H H H 6 . .                                           ",
"                                      . . 8 C C C l . . . o x Z C C < . .                                           ",
"                                      . . < k k k f + . . o g k k k $ . .                                           ",
"                                      . . . . . O .         . . . O . . .                                           ",
"                                      . . . . . . .         . . . . . . .                                           ",
"                                                                                                                    ",
"                                                                                                                    ",
"                                                                                                                    "
};
