/* XPM */
static char *_8b5bb8b26654df29ae77484a5082a59DSue1vwn1as8Dnt7[] = {
/* columns rows colors chars-per-pixel */
"58 58 178 2 ",
"   c None",
".  c #010405",
"X  c #0A0A07",
"o  c #040709",
"O  c #06090A",
"+  c #0B0D0D",
"@  c #070906",
"#  c #141409",
"$  c #1E140C",
"%  c #1A180A",
"&  c #0B0F10",
"*  c #0D1011",
"=  c #131514",
"-  c #1E1B13",
";  c #1A1D1D",
":  c #171A1B",
">  c #21160D",
",  c #2B1C0F",
"<  c #221F0B",
"1  c #2D1D10",
"2  c #24210B",
"3  c #2E290E",
"4  c #29250D",
"5  c #352F0F",
"6  c #38310F",
"7  c #252016",
"8  c #2E2116",
"9  c #292319",
"0  c #3A2513",
"q  c #3E2C1D",
"w  c #3A3410",
"e  c #343015",
"r  c #1E2121",
"t  c #222423",
"y  c #2A2C2B",
"u  c #262928",
"i  c #2D312F",
"p  c #2D2F30",
"a  c #2E3130",
"s  c #333634",
"d  c #363937",
"f  c #3A3C3C",
"g  c #373939",
"h  c #442A16",
"j  c #4A2D16",
"k  c #4C311B",
"l  c #4F3017",
"z  c #523219",
"x  c #59361A",
"c  c #5E381B",
"v  c #623B1C",
"b  c #4D3F2A",
"n  c #433624",
"m  c #533822",
"M  c #3E403E",
"N  c #4A4113",
"B  c #72431F",
"V  c #5F4125",
"C  c #464136",
"Z  c #5D4A35",
"A  c #594C3A",
"S  c #6B4728",
"D  c #734521",
"F  c #744825",
"G  c #754C2D",
"H  c #7D4E28",
"J  c #7A4C27",
"K  c #764F30",
"L  c #775133",
"P  c #785539",
"I  c #785637",
"U  c #6B5638",
"Y  c #7A623F",
"T  c #3F4140",
"R  c #414343",
"E  c #454946",
"W  c #464A49",
"Q  c #4B4D4B",
"!  c #4A4A47",
"~  c #514C43",
"^  c #4F514F",
"/  c #52534C",
"(  c #4F5051",
")  c #535554",
"_  c #575859",
"`  c #5A5C5B",
"'  c #5E5850",
"]  c #625E42",
"[  c #7B5D46",
"{  c #765840",
"}  c #7B6240",
"|  c #7A644D",
" . c #666052",
".. c #696353",
"X. c #746152",
"o. c #7C6F59",
"O. c #7E6552",
"+. c #5F6061",
"@. c #626463",
"#. c #676868",
"$. c #6A6B6B",
"%. c #696967",
"&. c #716F6B",
"*. c #747069",
"=. c #737473",
"-. c #7B7C7B",
";. c #826F1D",
":. c #85711E",
">. c #835932",
",. c #937D21",
"<. c #976739",
"1. c #856842",
"2. c #9C7C4F",
"3. c #806A58",
"4. c #8F7856",
"5. c #8F7C5E",
"6. c #9D7C50",
"7. c #917C5C",
"8. c #A07E51",
"9. c #857965",
"0. c #887B69",
"q. c #917E60",
"w. c #857C75",
"e. c #7F807F",
"r. c #9A8322",
"t. c #AD9225",
"y. c #CFAE2C",
"u. c #D2B12C",
"i. c #D9B72E",
"p. c #DFBB2F",
"a. c #DEBB32",
"s. c #E2BE2F",
"d. c #E3BF30",
"f. c #EAC531",
"g. c #EEC934",
"h. c #F4CD33",
"j. c #FCD435",
"k. c #AD804D",
"l. c #A38253",
"z. c #AD8958",
"x. c #B18C59",
"c. c #BB945E",
"v. c #87827E",
"b. c #A58B65",
"n. c #AB8F66",
"m. c #AE9167",
"M. c #B89767",
"N. c #CC985C",
"B. c #C29962",
"V. c #C8A36F",
"C. c #D4A76B",
"Z. c #DFAF70",
"A. c #D1A972",
"S. c #DFB070",
"D. c #E1AD6C",
"F. c #E5B06E",
"G. c #E9B877",
"H. c #EEBD7A",
"J. c #F0BD78",
"K. c #F5C17C",
"L. c #FCC67D",
"P. c #FFC97F",
"I. c #818181",
"U. c #828383",
"Y. c #898583",
"T. c #8A8886",
"R. c gray54",
"E. c #8B8B8B",
"W. c gray55",
"Q. c #8D8D8D",
"!. c #8E8E8E",
"~. c #8D8D8D",
"^. c #909091",
"/. c #FFCB81",
"(. c #FFC980",
"). c #FFCD81",
"_. c #FFCC81",
"`. c #FFD185",
/* pixels */
"                                                                                                                    ",
"                                                                                                                    ",
"                                                                                                                    ",
"                                                                                                                    ",
"                                                                                                                    ",
"                                                    . . . . . .                                                     ",
"                                                    . . . . . .                                                     ",
"                                                    . . & * o .                                                     ",
"                                            . . o . . + T M + . . . . . . . .                                       ",
"                                          . . . . . . + E E + . . . . . . . .                                       ",
"                                          p R T M R T R W W R R R T R T T R s                                       ",
"                                      . . W W.W.W.W.W.I.) ^ I.E.Q.E.E.E.E.E.` . .                                   ",
"                                      O o Q W.R.R.E.E.I.^ ^ v.R.R.R.R.R.E.E.` + O                                   ",
"                              . . . . Q $.-.E.R.R.E.E.e.^ ^ e.R.R.E.R.R.E.E.I.$._ O . . .                           ",
"                              . . . . ` !.W.E.E.E.E.W.I.^ ^ e.W.E.E.E.E.R.R.E.W.$.O . . .                           ",
"                              w w + . ` !.e.-.-.-.-.-.=.^ ^ =.-.-.-.-.-.I.R.E.E.$.O @ 5 w                           ",
"                          . % u.f.w . ` ~.$.^ ^ ^ ^ / ^ W ! ^ ^ ^ Q ^ ^ $.R.R.W.$.o 2 i.f.3 .                       ",
"                          . # u.h.w . ` !.$.E W W W ! W W W E ! ^ ^ E E $.W.R.W.$.o 2 s.g.3 .                       ",
"                      . 4 ;.r.f.h.w . R $.0.m.| t C b.b.m.b.m.b.C r | m.v.%.=.W.$.o 2 s.h.r.:.w .                   ",
"                      . 3 g.j.j.h.w . p W b.).6.. n L.P.P.P.P.L.q . l.P.z.M @.E.$.o 2 s.j.j.j.N .                   ",
"                      . 3 a.g.f.p.6 . s ( b.K.6.# C G.J.H.J.J.G.C # 2.K.b.^ @.~.$.o % u.f.j.h.N .                   ",
"                      . % ' ] e 4 X . ) I.$. .5.C.M..... . .....M.C.4. .&.e.Y.R.$.O @ 4 w u.h.N .                   ",
"                      . * W R + . . . ` !.%.E 5.P.C.W W E E W ^ A.).l.T #.R.R.~.$.O . . + y.j.N .                   ",
"                      . + s a + . . . ` W.=.` 9.V.b.^ / o.o./ ^ b.V.=.` =.R.R.~.$.o . . # r.t.5 .                   ",
"                      . . o o     . . ` W.R.R.=.^ W W ..H.H. .W ^ W =.R.R.R.R.~.$.O .     @ O . .                   ",
"                      . . . .     . . ` W.R.R.=.W W W  .H.J...W W ^ =.R.R.R.R.~.$.O .     . . . .                   ",
"                      o .         . . ` W.=.+.9.M.7.9 t Z Z t t 4.M.9.+.=.R.e.@.Q O .         . .                   ",
"                      . .         . . ` !.$.E 5.).c.o . . . . @ c._.5.W $.W.=.W g o .         . .                   ",
"                      . .         . . ( -.@.E 5._.M., - % - - , B.P.5.E #.Y.$.E d O .         . .                   ",
"                                  . . * = a W 5.L.K.S.Z.Z.Z.S.S.K.P.5.E ^ ) f ; = . .                               ",
"                                  . . . . u Q q._._._._._._._._._.P.5.W W ^ g = = . .                               ",
"                                    . . . r a A 6.2.6.6.6.6.6.6.6.l.A i i i t + + . .                               ",
"                                          . . . . . . . . . . . . . . . . . . . . . .                               ",
"                                          o @ o . o o o o o o o . . . . . . . o . o o                               ",
"                                        . U x.1.z S z.z.x.z.z.z.S l > . ; s s s T +._ * .                           ",
"                                      . . 1.`.N.B <.L.P._._._.(.<.B , . u ( Q W ` W.-.* .                           ",
"                                      9 9 1.C.8.B <.D.F.F.F.F.D.>.v 8 * y ~ ~ ~ ' w.*.t :                           ",
"                              . . . . 6.K.I # 0 D D H J H H J J 1 @ y E Z F D D F J L -.-.; .                       ",
"                              . . . . l.).} . , D D D D D B D B $ . p Q Z D D D D D K Y.I.; .                       ",
"                            + r t + . l.).} . 1 D D B F | | F D $ . a Q Z D L O.[ D G Y.I.; .                       ",
"            . . . . . . . . + R W = . l._.Y . , D D B L Y.Y.L B > . p Q Z B [ E.w.F K Y.I.; .                       ",
"            . . . O O O O O * T E = . 8._.I . 1 D D B L v.v.L B $ . a ( Z B [ T.w.D G v.I.; .                       ",
"            . . a $.$.$.$.$.$.^ E = . S <.k . 1 D D D F I I F B > . ( -.X.D G P K D G Y.I.; .                       ",
"            . . f ^.!.!.W.W.R.) E = . j D 0 . 1 D D D D B D D B $ . _ ^.3.B B B B B K Y.U.; .                       ",
"              . s $.$.$.$.$.$.^ W = . 0 c , . > c x x x x x x x # . R $.X.P P P P P { %.#.; .                       ",
"                  O O + O O * T W = . o o o . . o o @ . o o . . . . o O E R.T.T.Y.R.=.= o                           ",
"                  . . . . . + T W = . . . . . . . . . . . . . . . . . . R !.E.E.W.!.-.* .                           ",
"                            + r t *       . . r ! Q ! E y y u y u y T Q E T R R R R f *                             ",
"                              . .         . . g W.W.W.I.) W Q ^ Q Q =.^.! . . . . . .                               ",
"                              . .         . . s Y.Y.T.-.Q E R E ! ! *.R.! . . . . . .                               ",
"                                          . . 8 L L L S = # * = m F K L q . .                                       ",
"                                          . . 1 D D F v X . . . x D D D 0 . .                                       ",
"                                          . . $ z z z j X . . O h z z z , . .                                       ",
"                                          . . . o . . .         . o . . . . .                                       ",
"                                          . . . . . . .         . . . . . . .                                       ",
"                                                                                                                    ",
"                                                                                                                    ",
"                                                                                                                    "
};
