/* XPM */
static char *ce6fb4b7441b4af78c32a22944ea8a50FZVk9dfAsQK64klN[] = {
/* columns rows colors chars-per-pixel */
"58 58 168 2 ",
"   c None",
".  c #010405",
"X  c #070906",
"o  c #0A0A07",
"O  c #040709",
"+  c #06090A",
"@  c #0B0D0D",
"#  c #141409",
"$  c #1E140C",
"%  c #1A180A",
"&  c #0B0F10",
"*  c #0D1011",
"=  c #131514",
"-  c #1E1B13",
";  c #171A1B",
":  c #1A1D1D",
">  c #21160D",
",  c #2B1C0F",
"<  c #2D1D10",
"1  c #24210B",
"2  c #29250D",
"3  c #2E290E",
"4  c #352F0F",
"5  c #38310F",
"6  c #2E2116",
"7  c #292319",
"8  c #3A2513",
"9  c #3E2C1D",
"0  c #343015",
"q  c #3A3410",
"w  c #1E2121",
"e  c #222423",
"r  c #262928",
"t  c #2A2C2B",
"y  c #2D312F",
"u  c #2D2F30",
"i  c #2E3130",
"p  c #333634",
"a  c #363937",
"s  c #373939",
"d  c #3A3C3C",
"f  c #442A16",
"g  c #4A2D16",
"h  c #4F3017",
"j  c #4C311B",
"k  c #523219",
"l  c #59361A",
"z  c #5E381B",
"x  c #623B1C",
"c  c #433624",
"v  c #533822",
"b  c #3E403E",
"n  c #4A4113",
"m  c #72431F",
"M  c #464136",
"N  c #5D4A35",
"B  c #594C3A",
"V  c #6B4728",
"C  c #734521",
"Z  c #744825",
"A  c #7A4C27",
"S  c #754C2D",
"D  c #7D4E28",
"F  c #764F30",
"G  c #6B5638",
"H  c #775133",
"J  c #785637",
"K  c #785539",
"L  c #7A623F",
"P  c #3F4140",
"I  c #414343",
"U  c #454946",
"Y  c #4A4A47",
"T  c #464A49",
"R  c #4B4D4B",
"E  c #514C43",
"W  c #4F514F",
"Q  c #52534C",
"!  c #4F5051",
"~  c #535554",
"^  c #5E5850",
"/  c #575859",
"(  c #5A5C5B",
")  c #625E42",
"_  c #765840",
"`  c #7B5D46",
"'  c #7B6240",
"]  c #7A644D",
"[  c #666052",
"{  c #696353",
"}  c #746152",
"|  c #7E6552",
" . c #7C6F59",
".. c #5F6061",
"X. c #626463",
"o. c #696967",
"O. c #676868",
"+. c #6A6B6B",
"@. c #716F6B",
"#. c #747069",
"$. c #737473",
"%. c #7B7C7B",
"&. c #826F1D",
"*. c #85711E",
"=. c #835932",
"-. c #976739",
";. c #856842",
":. c #9C7C4F",
">. c #806A58",
",. c #8F7856",
"<. c #8F7C5E",
"1. c #9D7C50",
"2. c #917C5C",
"3. c #A07E51",
"4. c #857965",
"5. c #887B69",
"6. c #917E60",
"7. c #857C75",
"8. c #7F807F",
"9. c #9A8322",
"0. c #AD9225",
"q. c #CFAE2C",
"w. c #D2B12C",
"e. c #D9B72E",
"r. c #DFBB2F",
"t. c #DEBB32",
"y. c #E2BE2F",
"u. c #EAC531",
"i. c #EEC934",
"p. c #F4CD33",
"a. c #FCD435",
"s. c #A38253",
"d. c #AD8958",
"f. c #B18C59",
"g. c #BB945E",
"h. c #87827E",
"j. c #A58B65",
"k. c #AE9167",
"l. c #B89767",
"z. c #CC985C",
"x. c #C29962",
"c. c #C8A36F",
"v. c #D4A76B",
"b. c #D1A972",
"n. c #DFAF70",
"m. c #DFB070",
"M. c #E1AD6C",
"N. c #E5B06E",
"B. c #E9B877",
"V. c #EEBD7A",
"C. c #F0BD78",
"Z. c #F5C17C",
"A. c #FCC67D",
"S. c #FFC97F",
"D. c #818181",
"F. c #828383",
"G. c #898583",
"H. c #8A8886",
"J. c gray54",
"K. c #8B8B8B",
"L. c gray55",
"P. c #8D8D8D",
"I. c #8E8E8E",
"U. c #909091",
"Y. c #FFC980",
"T. c #FFCC81",
"R. c #FFCD81",
"E. c #FFD185",
/* pixels */
"                                                                                                                    ",
"                                                                                                                    ",
"                                                                                                                    ",
"                                                                                                                    ",
"                                                                                                                    ",
"                                                    . . . . . .                                                     ",
"                                                    . . . . . .                                                     ",
"                                                    . . & * O .                                                     ",
"                                            . . O . . @ P b @ . . . . . . . .                                       ",
"                                          . . . . . . @ U U @ . . O . . . . .                                       ",
"                                          i I P b I P I T T I I P P P P P I p                                       ",
"                                      . . T K.K.L.L.L.D.~ W D.K.I.K.K.K.K.K.( . .                                   ",
"                                      + + R L.K.K.K.K.D.W W h.K.J.J.J.J.K.K.( @ +                                   ",
"                              . . . . R +.%.K.K.K.K.K.8.W W %.K.J.K.J.J.K.K.D.+./ + . . .                           ",
"                              . . . . ( I.L.K.K.K.K.L.D.W W D.L.K.K.J.J.K.K.K.L.+.+ . . .                           ",
"                              q q @ . ( I.%.%.%.%.%.%.$.W W $.%.%.%.%.%.h.K.K.K.+.+ X 4 q                           ",
"                          . % w.u.q . ( L.+.~ W W W Q W T Y W W W R W W +.K.K.K.+.O 1 e.u.3 .                       ",
"                          . # w.p.q . ( L.+.U T T T Y T T T U Y W W U U +.K.K.L.+.O 1 y.i.3 .                       ",
"                      . 2 &.9.u.p.q . I +.5.k.] e M j.j.k.j.k.j.M w ] k.h.o.$.L.+.O 1 y.p.9.*.q .                   ",
"                      . 3 i.a.a.p.q . u T j.T.1.. c A.S.S.S.S.A.9 . s.S.d.b X.K.+.O 1 y.a.a.a.n .                   ",
"                      . 3 t.i.u.t.5 . p ~ j.Z.:.# M B.C.V.C.C.B.M # 1.Z.j.~ X.L.+.O % w.u.a.p.n .                   ",
"                      . % ^ ) 0 2 o . ~ %.+.[ <.v.l.{ { [ [ { { l.v.,.[ @.%.H.K.+.+ X 2 5 w.p.n .                   ",
"                      . * T I @ . . . ( I.+.U 2.S.v.T T U U T W b.T.s.d O.K.K.L.+.+ . . @ q.a.n .                   ",
"                      . @ p i @ . . . ( L.$.( 4.c.j.W Q  . .Q W j.c.$.( $.K.K.L.+.O . . # 9.0.4 .                   ",
"                      . . O O     . . ( K.K.K.$.W T T { V.V.[ T W T $.K.K.K.K.K.+.+ .     o + . .                   ",
"                      . . . .     . . ( K.K.K.$.T T T [ V.C.{ T T W $.K.H.K.K.L.+.+ .     . . . .                   ",
"                      O .         . . ( K.$...4.l.2.7 e N N e e ,.l.4...$.K.8.X.R + .         . .                   ",
"                      . .         . . ( L.+.U <.T.g.O . . . . X g.T.<.T O.K.$.T s O .         . .                   ",
"                      . .         . . ~ %.X.U <.T.l., - % - - , x.S.<.U O.G.+.U a + .         . .                   ",
"                                  . . & = i T <.A.Z.m.n.n.n.m.n.Z.S.<.U W ~ d : = . .                               ",
"                                  . . . . r R 6.T.T.T.T.T.T.T.T.T.S.<.T T W s = = . .                               ",
"                                    . . . w i B 1.:.1.1.1.1.:.:.1.s.B y y y e @ @ . .                               ",
"                                          . . . . . . . . . . . . . . . . . . . . . .                               ",
"                                          + X O . O O O O O O O . . . . . . . O . O O                               ",
"                                        . G f.;.k V d.d.f.d.d.d.V h > . : p p p P ../ * .                           ",
"                                      . . ;.E.z.m -.A.S.T.T.T.Y.-.m , . r ! R T ( L.%.* .                           ",
"                                      7 7 ;.v.3.m -.M.N.N.N.N.M.=.x 6 * t E E E ^ 7.#.e ;                           ",
"                              . . . . 1.Z.J # 8 C C D A D D A A < X t U N Z C C Z A H %.%.: .                       ",
"                              . . . . s.T.' . , C C C C C m C m $ . u R N C C C C C F G.D.: .                       ",
"                            @ w e @ . s.T.' . < C C m Z ] ] Z C $ . i R N C H | ` C S G.D.: .                       ",
"            . . . . . . . . @ I T = . s.T.L . , C C m H G.G.H m > . t R N m ` K.7.Z F G.D.: .                       ",
"            . . . + + @ + + * P U = . 3.T.J . < C C m H h.h.H m $ . p ! N m ` H.7.C S h.D.: .                       ",
"            . . i +.+.+.+.+.+.! U = . V -.j . < C C C Z J J Z m > . ! %.} C S K F C S G.D.: .                       ",
"            . . d U.L.L.K.K.K.~ U = . g C 8 . < C C C C m C C m $ . / U.>.m m C m m F G.D.: .                       ",
"              . p +.+.+.+.+.+.W T = . 8 z , . > z l l l l l l l # . I +.} K K K K K _ o.+.: .                       ",
"                  + + @ + + * P T = . O O O . . O O X . O + . . . . O O U K.H.H.G.K.$.= O                           ",
"                  . . . . . @ P T = . . . . . . . . . . . . . . . . . . I L.L.L.K.L.%.* .                           ",
"                            @ w e *       . . w Y R Y U t t r t r t P R U P I I I I d *                             ",
"                              . .         . . s K.L.L.D.~ T R W R R $.U.Y . . . . . .                               ",
"                              . .         . . p G.G.H.%.R U I U Y Y @.K.Y . . . . . .                               ",
"                                          . . 6 H H H V = # * = v Z F H 9 . .                                       ",
"                                          . . < C C Z x o . . . l C C C 8 . .                                       ",
"                                          . . $ k k k g o . . + f k k k , . .                                       ",
"                                          . . . + . . .         . O . . . . .                                       ",
"                                          . . . . . . .         . . . . . . .                                       ",
"                                                                                                                    ",
"                                                                                                                    ",
"                                                                                                                    "
};
