/* XPM */
static char *_b0d5f4dd9d54756950d7fa6ec23992du5SO7U8FN4pbczTR[] = {
/* columns rows colors chars-per-pixel */
"58 58 132 2 ",
"   c None",
".  c #010405",
"X  c #070906",
"o  c #0A0A07",
"O  c #040709",
"+  c #06090A",
"@  c #0B0D0D",
"#  c #141409",
"$  c #1E140C",
"%  c #1A180A",
"&  c #0B0F10",
"*  c #0D1011",
"=  c #131514",
"-  c #171A1B",
";  c #1A1D1D",
":  c #21160D",
">  c #2B1C0F",
",  c #2D1D10",
"<  c #24210B",
"1  c #29250D",
"2  c #2E290E",
"3  c #352F0F",
"4  c #38310F",
"5  c #2E2116",
"6  c #292319",
"7  c #3A2513",
"8  c #3E2C1D",
"9  c #343015",
"0  c #3A3410",
"q  c #1E2121",
"w  c #222423",
"e  c #262928",
"r  c #2A2C2B",
"t  c #2D312F",
"y  c #2D2F30",
"u  c #2E3130",
"i  c gray20",
"p  c #333634",
"a  c #363937",
"s  c #373939",
"d  c #3A3C3C",
"f  c #442A16",
"g  c #4A2D16",
"h  c #4F3017",
"j  c #4C311B",
"k  c #523219",
"l  c #59361A",
"z  c #5E381B",
"x  c #623B1C",
"c  c #533822",
"v  c #3E403E",
"b  c #4A4113",
"n  c #72431F",
"m  c #6B4728",
"M  c #734521",
"N  c #744825",
"B  c #7A4C27",
"V  c #754C2D",
"C  c #7D4E28",
"Z  c #764F30",
"A  c #6B5638",
"S  c #775133",
"D  c #785637",
"F  c #7A623F",
"G  c #3F4140",
"H  c #414343",
"J  c #454946",
"K  c #4A4A47",
"L  c #464A49",
"P  c #4B4D4B",
"I  c #4F514F",
"U  c #535554",
"Y  c #5E5850",
"T  c #575859",
"R  c #5A5C5B",
"E  c #625E42",
"W  c #7B6240",
"Q  c #5F6061",
"!  c #626463",
"~  c #696967",
"^  c #676868",
"/  c #6A6B6B",
"(  c #747069",
")  c #737473",
"_  c #7B7C7B",
"`  c #826F1D",
"'  c #85711E",
"]  c #835932",
"[  c #976739",
"{  c #856842",
"}  c #9D7C50",
"|  c #A07E51",
" . c #857C75",
".. c #7F807F",
"X. c #9A8322",
"o. c #AD9225",
"O. c #CFAE2C",
"+. c #D2B12C",
"@. c #D9B72E",
"#. c #DFBB2F",
"$. c #DEBB32",
"%. c #E2BE2F",
"&. c #EAC531",
"*. c #EEC934",
"=. c #F4CD33",
"-. c #FCD435",
";. c #A38253",
":. c #AD8958",
">. c #B18C59",
",. c #87827E",
"<. c #CC985C",
"1. c #D4A76B",
"2. c #E1AD6C",
"3. c #E5B06E",
"4. c #F5C17C",
"5. c #FCC67D",
"6. c #FFC97F",
"7. c #808080",
"8. c #818181",
"9. c #828383",
"0. c #898583",
"q. c #8A8886",
"w. c gray54",
"e. c #8B8B8B",
"r. c gray55",
"t. c #8D8D8D",
"y. c #8E8E8E",
"u. c #909091",
"i. c #FFC980",
"p. c #FFCC81",
"a. c #FFCD81",
"s. c #FFD185",
/* pixels */
"                                                                                                                    ",
"                                                                                                                    ",
"                                                                                                                    ",
"                                                                                                                    ",
"                                                                                                                    ",
"                                                    . . . . . .                                                     ",
"                                                    . . . . . . .                                                   ",
"                                                    . . & * O . .                                                   ",
"                                            . . O . . @ G v I . . . . . . . .                                       ",
"                                          . . . . . . @ J J I . . . . . . . .                                       ",
"                                          y H H v H G H L L I H H G H G G H p                                       ",
"                                      . . L r.r.r.r.r.8.U I I ) ) ) ) ) 8.8.R . .                                   ",
"                                      + O P r.w.w.r.w.8.I I I ) 8.w.w.w.8.w.R @ +                                   ",
"                              . . . . P / _ w.w.w.w.r...I I I ) 8.r.w.w.r.r.8./ T + . . .                           ",
"                              . . . . R 8.r.w.w.w.w.w.8.I I I ) 8.w.r.w.w.w.w.r./ + . . .                           ",
"                              0 0 @ . R 8.w.w.w.w.w.w.w.I I I ) 8.w.w.w.w.w.r.w./ + X 3 0                           ",
"                          . % +.&.0 . R 8.w.w.w.w.w.w.w.U I I ) 8.w.w.w.w.w.w.r./ O < @.&.2 .                       ",
"                          . # +.=.0 . R 8.w.w.w.w.w.w.w.I I I ) 8.w.w.w.w.w.w.r./ O < %.*.2 .                       ",
"                      . 1 ` X.&.=.0 . R 8.w.w.w.w.w.w...I I I ) 8.w.w.w.w.w.w.r./ O < %.=.X.' 0 .                   ",
"                      . 2 *.-.-.=.0 . R 8.w.w.w.w.w.w.8.I I I ) 8.w.w.w.w.w.w.r./ O < %.-.-.-.b .                   ",
"                      . 2 $.*.&.#.4 . R 8.w.w.w.w.w.w...I I I ) 8.w.w.w.w.w.r.r./ O % +.&.-.=.b .                   ",
"                      . % Y E 9 1 o . R 8.w.w.w.w.w.w.8.U I I ) 8.w.w.w.w.w.w.w./ + X 1 0 +.=.b .                   ",
"                      . * L H @ . . . R 8.w.w.w.w.w.w.8.I I I ) 8.w.w.w.w.w.w.r./ + . . @ O.-.b .                   ",
"                      . @ p u @ . . . R 8.w.w.w.w.w.w...I I I ) 8.w.w.w.w.w.r.r./ O . . # X.o.3 .                   ",
"                      . . O O     . . R 8.w.w.w.w.w.w.8.I I I ) 8.w.w.w.w.w.w.r./ + .     X + . .                   ",
"                      . . . .     . + / r.w.w.w.w.w.w.) I I I ) 8.w.w.w.w.w.w.r./ + .     . . . .                   ",
"                                  . + P ! 8.w.w.w.w.w.8.U I I ) 8.w.w.w.w.w...! P + .                               ",
"                                  . O s L ) w.w.w.w.w.8.U I I ) 8.w.w.w.w.w.) L s O .                               ",
"                                  . + a J / ..w.w.w.w.8.I I I ) 8.8.w.w.w.../ J a + .                               ",
"                                  . . = ; d ) ) ........I I I ) ) ......) ) d ; = . .                               ",
"                                  . . = = s I L L L L L w I I L L L L L L I s = = . .                               ",
"                                    . @ @ w t t t t t t w w t t t t t t t t w @ @ .                                 ",
"                                      . . . . . . . . . . . . . . . . . . . . . .                                   ",
"                                        + . . O X . . O O O O O . . . X O . . O                                     ",
"                                        . A >.{ k m :.:.>.:.:.:.m h ] >.A . p p G Q T * .                           ",
"                                    . . . { s.<.n [ 5.i.p.p.p.i.[ n [ s.{ . . . R r._ * .                           ",
"                                    . 6 6 { 1.| n [ 2.3.3.3.3.2.] x ] 1.{ 6 6 . Y  .( w -                           ",
"                                    . } 4.D # 7 M M C B C C B B n n n n D 4.} . N B S _ _ ; .                       ",
"                                    . ;.p.W . , M M M M M n M n n n n n W p.;.. n M S 0.8.; .                       ",
"                                    . ;.p.W . , M M n N M M M M n n n n W p.;.. N M V 0.8.; .                       ",
"                                    . ;.p.F . , M M n M M M M n n n n n W p.;.. N N Z 0.8.; .                       ",
"                                    . | p.D . , M M n M M M M n n n n n D p.} r.. . . ,.8.; .                       ",
"                                    . m [ j . , M M M M M M M n n n n n >.r.e...,.g . 0.8.; .                       ",
"                                    . g 8._ . , M M M M n M M n n n n M >.8.e.,...p . 0.9.; .                       ",
"                                    . 7 i 8.. : z l l l l l l l l l l l l . . . i . . / ^ ; .                       ",
"                                    . O O O . . O O X . O O . . . . O . O O O . 0.w.. = O                           ",
"                                    . . . . . . . . . . . . . . . . . . . . . . w.r._ * .                           ",
"                                          . . q K P K J r r e r e r G P J H H H H H d *                             ",
"                                          . . s r.r.r.8.U L P I P P ) u.K . . . . . .                               ",
"                                          . . p 0.0.q._ P J H J K K ( w.K . . . . . .                               ",
"                                          . . 5 S S S m = # * = c N Z S 8 . .                                       ",
"                                          . . , M M N x o . . . l M M M 7 . .                                       ",
"                                          . . $ k k k g o . . + f k k k > . .                                       ",
"                                          . . . O . . .         . O . . . . .                                       ",
"                                          . . . . . . .         . . . . . . .                                       ",
"                                                                                                                    ",
"                                                                                                                    ",
"                                                                                                                    "
};
